<?xml version="1.0" encoding="UTF-8"?>
<svg xmlns="http://www.w3.org/2000/svg" xmlns:xlink="http://www.w3.org/1999/xlink" width="432pt" height="384pt" viewBox="0 0 432 384" version="1.1">
<g id="surface1">
<path style=" stroke:none;fill-rule:nonzero;fill:rgb(0%,0%,0%);fill-opacity:1;" d="M 216 0 C 163.808594 0 121.5 42.308594 121.5 94.5 C 121.5 136.695312 183.261719 213.601562 206.925781 241.515625 C 211.71875 247.171875 220.289062 247.171875 225.074219 241.515625 C 248.738281 213.601562 310.5 136.695312 310.5 94.5 C 310.5 42.308594 268.191406 0 216 0 Z M 216 126 C 198.601562 126 184.5 111.898438 184.5 94.5 C 184.5 77.101562 198.601562 63 216 63 C 233.398438 63 247.5 77.101562 247.5 94.5 C 247.5 111.898438 233.398438 126 216 126 Z M 15.089844 161.960938 C 5.976562 165.605469 0.00390625 174.429688 0 184.246094 L 0 371.984375 C 0 380.476562 8.574219 386.28125 16.453125 383.128906 L 120 336 L 120 161.191406 C 113.371094 149.203125 107.949219 137.535156 104.0625 126.375 Z M 216 269.753906 C 205.449219 269.753906 195.464844 265.117188 188.617188 257.03125 C 173.871094 239.632812 158.191406 219.816406 144 199.492188 L 144 335.992188 L 288 383.992188 L 288 199.5 C 273.808594 219.816406 258.136719 239.640625 243.382812 257.039062 C 236.535156 265.117188 226.550781 269.753906 216 269.753906 Z M 415.546875 120.871094 L 312 168 L 312 384 L 416.910156 342.039062 C 426.023438 338.394531 432 329.570312 432 319.753906 L 432 132.015625 C 432 123.523438 423.425781 117.71875 415.546875 120.871094 Z M 415.546875 120.871094 "/>
</g>
</svg>
