<?xml version="1.0" standalone="no"?><svg xmlns="http://www.w3.org/2000/svg" viewBox="0 0 1440 320"><path fill="#46b22d" fill-opacity="1" d="M0,192L7.1,192C14.1,192,28,192,42,186.7C56.5,181,71,171,85,149.3C98.8,128,113,96,127,122.7C141.2,149,155,235,169,266.7C183.5,299,198,277,212,250.7C225.9,224,240,192,254,181.3C268.2,171,282,181,296,160C310.6,139,325,85,339,96C352.9,107,367,181,381,224C395.3,267,409,277,424,261.3C437.6,245,452,203,466,208C480,213,494,267,508,282.7C522.4,299,536,277,551,250.7C564.7,224,579,192,593,181.3C607.1,171,621,181,635,208C649.4,235,664,277,678,288C691.8,299,706,277,720,261.3C734.1,245,748,235,762,240C776.5,245,791,267,805,245.3C818.8,224,833,160,847,144C861.2,128,875,160,889,197.3C903.5,235,918,277,932,288C945.9,299,960,277,974,261.3C988.2,245,1002,235,1016,229.3C1030.6,224,1045,224,1059,240C1072.9,256,1087,288,1101,261.3C1115.3,235,1129,149,1144,133.3C1157.6,117,1172,171,1186,186.7C1200,203,1214,181,1228,176C1242.4,171,1256,181,1271,208C1284.7,235,1299,277,1313,288C1327.1,299,1341,277,1355,240C1369.4,203,1384,149,1398,112C1411.8,75,1426,53,1433,42.7L1440,32L1440,0L1432.9,0C1425.9,0,1412,0,1398,0C1383.5,0,1369,0,1355,0C1341.2,0,1327,0,1313,0C1298.8,0,1285,0,1271,0C1256.5,0,1242,0,1228,0C1214.1,0,1200,0,1186,0C1171.8,0,1158,0,1144,0C1129.4,0,1115,0,1101,0C1087.1,0,1073,0,1059,0C1044.7,0,1031,0,1016,0C1002.4,0,988,0,974,0C960,0,946,0,932,0C917.6,0,904,0,889,0C875.3,0,861,0,847,0C832.9,0,819,0,805,0C790.6,0,776,0,762,0C748.2,0,734,0,720,0C705.9,0,692,0,678,0C663.5,0,649,0,635,0C621.2,0,607,0,593,0C578.8,0,565,0,551,0C536.5,0,522,0,508,0C494.1,0,480,0,466,0C451.8,0,438,0,424,0C409.4,0,395,0,381,0C367.1,0,353,0,339,0C324.7,0,311,0,296,0C282.4,0,268,0,254,0C240,0,226,0,212,0C197.6,0,184,0,169,0C155.3,0,141,0,127,0C112.9,0,99,0,85,0C70.6,0,56,0,42,0C28.2,0,14,0,7,0L0,0Z"></path></svg>