<?xml version="1.0" encoding="UTF-8"?>
<svg xmlns="http://www.w3.org/2000/svg" xmlns:xlink="http://www.w3.org/1999/xlink" width="30pt" height="30pt" viewBox="0 0 30 30" version="1.1">
<defs>
<radialGradient id="radial0" gradientUnits="userSpaceOnUse" cx="25" cy="25.0003" fx="25" fy="25.0003" r="22.3363" gradientTransform="matrix(0.509211,0,0,0.512763,2.072368,1.983197)">
<stop offset="0" style="stop-color:rgb(60.784314%,100%,51.372549%);stop-opacity:1;"/>
<stop offset="0.6042" style="stop-color:rgb(31.764706%,77.647059%,20.392157%);stop-opacity:1;"/>
<stop offset="1" style="stop-color:rgb(25.098039%,65.098039%,16.078431%);stop-opacity:1;"/>
</radialGradient>
</defs>
<g id="surface1">
<path style=" stroke:none;fill-rule:nonzero;fill:url(#radial0);" d="M 2.664062 21.859375 L 2.664062 7.746094 L 14.800781 0.6875 L 26.941406 7.746094 L 26.941406 21.859375 L 14.800781 28.917969 Z M 2.664062 21.859375 "/>
<path style=" stroke:none;fill-rule:nonzero;fill:rgb(0%,0%,0%);fill-opacity:1;" d="M 14.800781 1.367188 L 26.347656 8.082031 L 26.347656 21.523438 L 14.800781 28.238281 L 3.257812 21.523438 L 3.257812 8.082031 L 14.800781 1.367188 M 14.800781 0 L 2.074219 7.402344 L 2.074219 22.203125 L 14.800781 29.605469 L 27.53125 22.203125 L 27.53125 7.402344 Z M 14.800781 0 "/>
<path style=" stroke:none;fill-rule:nonzero;fill:rgb(0%,0%,0%);fill-opacity:1;" d="M 16.316406 9.515625 L 16.316406 13.28125 L 20.082031 13.28125 L 20.082031 16.316406 L 16.316406 16.316406 L 16.316406 20.082031 L 13.28125 20.082031 L 13.28125 16.316406 L 9.515625 16.316406 L 9.515625 13.28125 L 13.28125 13.28125 L 13.28125 9.515625 L 16.316406 9.515625 M 16.632812 8.628906 L 12.972656 8.628906 C 12.660156 8.628906 12.398438 8.890625 12.398438 9.203125 L 12.398438 12.394531 L 9.207031 12.394531 C 8.894531 12.394531 8.632812 12.652344 8.632812 12.96875 L 8.632812 16.625 C 8.632812 16.9375 8.894531 17.199219 9.207031 17.199219 L 12.398438 17.199219 L 12.398438 20.390625 C 12.398438 20.703125 12.660156 20.964844 12.972656 20.964844 L 16.632812 20.964844 C 16.945312 20.964844 17.207031 20.703125 17.207031 20.390625 L 17.207031 17.199219 L 20.398438 17.199219 C 20.710938 17.199219 20.972656 16.9375 20.972656 16.625 L 20.972656 12.96875 C 20.972656 12.652344 20.710938 12.394531 20.398438 12.394531 L 17.207031 12.394531 L 17.207031 9.203125 C 17.207031 8.890625 16.953125 8.628906 16.632812 8.628906 Z M 16.632812 8.628906 "/>
</g>
</svg>
