<?xml version="1.0" encoding="UTF-8"?>
<svg xmlns="http://www.w3.org/2000/svg" xmlns:xlink="http://www.w3.org/1999/xlink" width="30pt" height="33pt" viewBox="0 0 30 33" version="1.1">
<g id="surface1">
<path style=" stroke:none;fill-rule:nonzero;fill:rgb(0%,0%,0%);fill-opacity:1;" d="M 0 11.191406 L 0 3.480469 C 0 2.660156 0.714844 1.992188 1.605469 1.992188 L 9.910156 1.992188 C 10.355469 1.992188 10.714844 2.324219 10.714844 2.734375 L 10.714844 5.226562 C 10.714844 5.632812 10.355469 5.96875 9.910156 5.96875 L 4.285156 5.96875 L 4.285156 11.191406 C 4.285156 11.601562 3.925781 11.933594 3.480469 11.933594 L 0.800781 11.933594 C 0.363281 11.933594 0 11.601562 0 11.191406 Z M 19.285156 2.734375 L 19.285156 5.226562 C 19.285156 5.632812 19.644531 5.96875 20.089844 5.96875 L 25.714844 5.96875 L 25.714844 11.191406 C 25.714844 11.601562 26.074219 11.933594 26.519531 11.933594 L 29.199219 11.933594 C 29.636719 11.933594 30 11.601562 30 11.191406 L 30 3.480469 C 30 2.660156 29.285156 1.992188 28.394531 1.992188 L 20.089844 1.992188 C 19.644531 1.992188 19.285156 2.324219 19.285156 2.734375 Z M 29.199219 19.894531 L 26.519531 19.894531 C 26.074219 19.894531 25.714844 20.226562 25.714844 20.640625 L 25.714844 25.863281 L 20.089844 25.863281 C 19.644531 25.863281 19.285156 26.195312 19.285156 26.609375 L 19.285156 29.097656 C 19.285156 29.511719 19.644531 29.84375 20.089844 29.84375 L 28.394531 29.84375 C 29.285156 29.84375 30 29.175781 30 28.347656 L 30 20.640625 C 30 20.226562 29.636719 19.894531 29.199219 19.894531 Z M 10.714844 29.097656 L 10.714844 26.609375 C 10.714844 26.195312 10.355469 25.863281 9.910156 25.863281 L 4.285156 25.863281 L 4.285156 20.640625 C 4.285156 20.226562 3.925781 19.894531 3.480469 19.894531 L 0.800781 19.894531 C 0.363281 19.894531 0 20.226562 0 20.640625 L 0 28.347656 C 0 29.175781 0.714844 29.84375 1.605469 29.84375 L 9.910156 29.84375 C 10.355469 29.84375 10.714844 29.511719 10.714844 29.097656 Z M 10.714844 29.097656 "/>
</g>
</svg>
