<?xml version="1.0" encoding="UTF-8"?>
<svg xmlns="http://www.w3.org/2000/svg" xmlns:xlink="http://www.w3.org/1999/xlink" width="30pt" height="30pt" viewBox="0 0 30 30" version="1.1">
<defs>
<radialGradient id="radial0" gradientUnits="userSpaceOnUse" cx="25" cy="25.0003" fx="25" fy="25.0003" r="22.3363" gradientTransform="matrix(0.509211,0,0,0.512763,2.072368,1.983197)">
<stop offset="0" style="stop-color:rgb(60.784314%,100%,51.372549%);stop-opacity:1;"/>
<stop offset="0.6042" style="stop-color:rgb(31.764706%,77.647059%,20.392157%);stop-opacity:1;"/>
<stop offset="1" style="stop-color:rgb(25.098039%,65.098039%,16.078431%);stop-opacity:1;"/>
</radialGradient>
</defs>
<g id="surface1">
<path style=" stroke:none;fill-rule:nonzero;fill:url(#radial0);" d="M 2.664062 21.859375 L 2.664062 7.746094 L 14.800781 0.6875 L 26.941406 7.746094 L 26.941406 21.859375 L 14.800781 28.917969 Z M 2.664062 21.859375 "/>
<path style=" stroke:none;fill-rule:nonzero;fill:rgb(0%,0%,0%);fill-opacity:1;" d="M 14.800781 1.367188 L 26.347656 8.082031 L 26.347656 21.523438 L 14.800781 28.238281 L 3.257812 21.523438 L 3.257812 8.082031 L 14.800781 1.367188 M 14.800781 0 L 2.074219 7.402344 L 2.074219 22.203125 L 14.800781 29.605469 L 27.53125 22.203125 L 27.53125 7.402344 Z M 14.800781 0 "/>
<path style=" stroke:none;fill-rule:nonzero;fill:rgb(0%,0%,0%);fill-opacity:1;" d="M 14.800781 12.316406 C 14.589844 12.316406 14.425781 12.140625 14.425781 11.910156 C 14.425781 11.6875 14.59375 11.511719 14.800781 11.511719 C 15.453125 11.511719 15.984375 10.957031 15.984375 10.261719 C 15.984375 9.574219 15.453125 9.011719 14.800781 9.011719 C 14.152344 9.011719 13.621094 9.566406 13.621094 10.261719 C 13.621094 10.480469 13.445312 10.664062 13.238281 10.664062 C 13.027344 10.664062 12.859375 10.484375 12.859375 10.261719 C 12.859375 9.132812 13.730469 8.210938 14.808594 8.210938 C 15.886719 8.210938 16.757812 9.132812 16.757812 10.261719 C 16.75 11.398438 15.875 12.316406 14.800781 12.316406 Z M 14.800781 12.316406 "/>
<path style=" stroke:none;fill-rule:nonzero;fill:rgb(0%,0%,0%);fill-opacity:1;" d="M 14.835938 13.652344 L 14.59375 13.652344 C 14.496094 13.652344 14.417969 13.574219 14.417969 13.476562 L 14.417969 11.925781 C 14.417969 11.824219 14.5 11.746094 14.59375 11.746094 L 14.835938 11.746094 C 14.9375 11.746094 15.015625 11.832031 15.015625 11.925781 L 15.015625 13.476562 C 15.023438 13.574219 14.9375 13.652344 14.835938 13.652344 Z M 14.835938 13.652344 "/>
<path style="fill:none;stroke-width:1.5;stroke-linecap:butt;stroke-linejoin:miter;stroke:rgb(0%,0%,0%);stroke-opacity:1;stroke-miterlimit:10;" d="M 24.159028 23.268403 L 13.0625 32.260417 C 12.079514 33.045486 12.640278 34.642014 13.900347 34.642014 L 36.1 34.642014 C 37.360069 34.642014 37.920833 33.045486 36.937847 32.260417 L 25.841319 23.268403 C 25.353125 22.872569 24.647222 22.872569 24.159028 23.268403 Z M 24.159028 23.268403 " transform="matrix(0.592105,0,0,0.592105,0,0)"/>
</g>
</svg>
