<?xml version="1.0" encoding="UTF-8"?>
<svg xmlns="http://www.w3.org/2000/svg" xmlns:xlink="http://www.w3.org/1999/xlink" width="30pt" height="30pt" viewBox="0 0 30 30" version="1.1">
<defs>
<radialGradient id="radial0" gradientUnits="userSpaceOnUse" cx="25" cy="25.0003" fx="25" fy="25.0003" r="22.3363" gradientTransform="matrix(0.509211,0,0,0.512763,2.072368,1.983197)">
<stop offset="0" style="stop-color:rgb(60.784314%,100%,51.372549%);stop-opacity:1;"/>
<stop offset="0.6042" style="stop-color:rgb(31.764706%,77.647059%,20.392157%);stop-opacity:1;"/>
<stop offset="1" style="stop-color:rgb(25.098039%,65.098039%,16.078431%);stop-opacity:1;"/>
</radialGradient>
</defs>
<g id="surface1">
<path style=" stroke:none;fill-rule:nonzero;fill:url(#radial0);" d="M 2.664062 21.859375 L 2.664062 7.746094 L 14.800781 0.6875 L 26.941406 7.746094 L 26.941406 21.859375 L 14.800781 28.917969 Z M 2.664062 21.859375 "/>
<path style=" stroke:none;fill-rule:nonzero;fill:rgb(0%,0%,0%);fill-opacity:1;" d="M 14.800781 1.367188 L 26.347656 8.082031 L 26.347656 21.523438 L 14.800781 28.238281 L 3.257812 21.523438 L 3.257812 8.082031 L 14.800781 1.367188 M 14.800781 0 L 2.074219 7.402344 L 2.074219 22.203125 L 14.800781 29.605469 L 27.53125 22.203125 L 27.53125 7.402344 Z M 14.800781 0 "/>
<path style=" stroke:none;fill-rule:nonzero;fill:rgb(0%,0%,0%);fill-opacity:1;" d="M 14.820312 11.589844 C 14.820312 11.589844 16.691406 10.074219 16.738281 9.023438 C 16.789062 7.96875 15.011719 7.390625 15.011719 6.660156 C 15.011719 5.933594 15.777344 4.929688 15.777344 4.929688 C 15.777344 4.929688 13.929688 6.453125 13.929688 7.476562 C 13.929688 8.503906 15.828125 8.785156 15.828125 9.398438 C 15.828125 10.007812 14.820312 11.589844 14.820312 11.589844 Z M 14.820312 11.589844 "/>
<path style=" stroke:none;fill-rule:nonzero;fill:rgb(0%,0%,0%);fill-opacity:1;" d="M 14.210938 11.71875 C 14.210938 11.71875 15.015625 10.539062 14.859375 9.933594 C 14.707031 9.332031 13.609375 9.300781 13.480469 8.890625 C 13.355469 8.480469 13.625 7.773438 13.625 7.773438 C 13.625 7.773438 12.835938 8.945312 13.011719 9.53125 C 13.179688 10.109375 14.304688 9.953125 14.40625 10.296875 C 14.511719 10.648438 14.210938 11.71875 14.210938 11.71875 Z M 14.210938 11.71875 "/>
<path style=" stroke:none;fill-rule:nonzero;fill:rgb(0%,0%,0%);fill-opacity:1;" d="M 19.417969 13.628906 C 19.597656 12.914062 19.609375 12.394531 19.234375 12.394531 C 18.582031 12.394531 14.164062 12.394531 14.164062 12.394531 C 14.164062 12.394531 9.746094 12.394531 9.089844 12.394531 C 8.714844 12.394531 8.726562 12.921875 8.914062 13.628906 Z M 19.417969 13.628906 "/>
<path style=" stroke:none;fill-rule:nonzero;fill:rgb(0%,0%,0%);fill-opacity:1;" d="M 9.035156 14.074219 C 9.167969 14.503906 9.335938 14.980469 9.511719 15.429688 C 10.050781 16.855469 11.191406 18.933594 11.824219 18.933594 C 12.457031 18.933594 14.164062 18.933594 14.164062 18.933594 C 14.164062 18.933594 15.867188 18.933594 16.503906 18.933594 C 17.136719 18.933594 18.28125 16.847656 18.816406 15.429688 C 18.988281 14.980469 19.160156 14.503906 19.289062 14.074219 Z M 9.035156 14.074219 "/>
<path style=" stroke:none;fill-rule:nonzero;fill:rgb(0%,0%,0%);fill-opacity:1;" d="M 20.246094 19.289062 L 8.085938 19.289062 C 8.085938 19.289062 7.574219 19.457031 7.621094 19.734375 C 7.667969 20.015625 8.390625 20.601562 8.390625 20.601562 L 14.171875 20.691406 L 19.949219 20.601562 C 19.949219 20.601562 20.667969 20.015625 20.714844 19.734375 C 20.757812 19.453125 20.246094 19.289062 20.246094 19.289062 Z M 20.246094 19.289062 "/>
<path style=" stroke:none;fill-rule:nonzero;fill:rgb(0%,0%,0%);fill-opacity:1;" d="M 19.628906 13.851562 L 19.847656 13.011719 C 19.847656 13.011719 20.78125 12.660156 21.472656 13.269531 C 22.15625 13.878906 22.03125 14.527344 21.839844 15 C 21.652344 15.464844 20.972656 16.503906 20.972656 16.503906 C 20.972656 16.503906 20.113281 17.320312 19.296875 16.992188 C 18.480469 16.667969 18.621094 16.503906 18.621094 16.503906 L 18.945312 15.808594 C 18.945312 15.808594 19.941406 16.304688 20.304688 15.699219 C 20.664062 15.097656 21.132812 14.492188 20.472656 14.074219 C 19.816406 13.660156 19.628906 13.851562 19.628906 13.851562 Z M 19.628906 13.851562 "/>
</g>
</svg>
