<?xml version="1.0" encoding="UTF-8"?>
<svg xmlns="http://www.w3.org/2000/svg" xmlns:xlink="http://www.w3.org/1999/xlink" width="30pt" height="30pt" viewBox="0 0 30 30" version="1.1">
<defs>
<radialGradient id="radial0" gradientUnits="userSpaceOnUse" cx="25" cy="25.0003" fx="25" fy="25.0003" r="22.3363" gradientTransform="matrix(0.509211,0,0,0.512763,2.072368,1.983197)">
<stop offset="0" style="stop-color:rgb(98.823529%,81.960784%,59.215686%);stop-opacity:1;"/>
<stop offset="0.6042" style="stop-color:rgb(100%,76.470588%,45.098039%);stop-opacity:1;"/>
<stop offset="1" style="stop-color:rgb(100%,50.196078%,0.392157%);stop-opacity:1;"/>
</radialGradient>
</defs>
<g id="surface1">
<path style=" stroke:none;fill-rule:nonzero;fill:url(#radial0);" d="M 2.664062 21.859375 L 2.664062 7.746094 L 14.800781 0.6875 L 26.941406 7.746094 L 26.941406 21.859375 L 14.800781 28.917969 Z M 2.664062 21.859375 "/>
<path style=" stroke:none;fill-rule:nonzero;fill:rgb(0%,0%,0%);fill-opacity:1;" d="M 14.800781 1.367188 L 26.347656 8.082031 L 26.347656 21.523438 L 14.800781 28.238281 L 3.257812 21.523438 L 3.257812 8.082031 L 14.800781 1.367188 M 14.800781 0 L 2.074219 7.402344 L 2.074219 22.203125 L 14.800781 29.605469 L 27.53125 22.203125 L 27.53125 7.402344 Z M 14.800781 0 "/>
<path style=" stroke:none;fill-rule:nonzero;fill:rgb(0%,0%,0%);fill-opacity:1;" d="M 18.550781 15.386719 L 9.457031 15.386719 C 9.433594 15.175781 9.410156 14.957031 9.378906 14.738281 L 18.621094 14.738281 C 18.59375 14.957031 18.570312 15.175781 18.550781 15.386719 Z M 20.933594 18.527344 C 20.667969 19.03125 20.113281 19.378906 19.453125 19.457031 C 19.332031 19.46875 19.195312 19.480469 19.046875 19.480469 C 18.710938 19.480469 18.3125 19.445312 17.917969 19.386719 C 17.597656 19.925781 17.054688 20.304688 16.105469 20.515625 L 16.105469 20.957031 L 11.886719 20.957031 L 11.886719 20.515625 C 9.46875 19.976562 9.691406 18.304688 9.492188 15.816406 L 18.503906 15.816406 C 18.496094 15.875 18.492188 15.933594 18.492188 15.992188 C 19.390625 15.882812 20.421875 15.972656 20.890625 16.835938 C 21.308594 17.578125 21.109375 18.183594 20.933594 18.527344 Z M 20.382812 17.046875 C 20.042969 16.535156 19.210938 16.390625 18.457031 16.578125 C 18.40625 17.355469 18.367188 18.027344 18.226562 18.601562 C 18.582031 18.691406 18.945312 18.753906 19.242188 18.734375 C 19.585938 18.714844 20.054688 18.6875 20.378906 18.285156 C 20.550781 18.082031 20.667969 17.472656 20.382812 17.046875 Z M 11.867188 10.472656 C 11.226562 11.988281 11.46875 13.277344 12.050781 14.003906 C 11.941406 12.496094 11.953125 11.863281 12.550781 10.59375 C 13.148438 9.332031 12.027344 8.496094 11.261719 8.148438 C 11.257812 8.152344 12.496094 8.949219 11.867188 10.472656 Z M 15.289062 10.382812 C 14.648438 11.894531 14.890625 13.179688 15.472656 13.910156 C 15.367188 12.40625 15.378906 11.765625 15.972656 10.496094 C 16.570312 9.234375 15.445312 8.402344 14.683594 8.054688 C 14.679688 8.054688 15.921875 8.863281 15.289062 10.382812 Z M 13.585938 9.117188 C 12.945312 10.636719 13.1875 11.917969 13.765625 12.648438 C 13.660156 11.144531 13.671875 10.503906 14.269531 9.234375 C 14.867188 7.976562 13.742188 7.140625 12.980469 6.792969 C 12.972656 6.796875 14.21875 7.597656 13.585938 9.117188 Z M 13.585938 9.117188 "/>
</g>
</svg>
