<?xml version="1.0" encoding="UTF-8"?>
<svg xmlns="http://www.w3.org/2000/svg" xmlns:xlink="http://www.w3.org/1999/xlink" width="30pt" height="30pt" viewBox="0 0 30 30" version="1.1">
<defs>
<radialGradient id="radial0" gradientUnits="userSpaceOnUse" cx="25" cy="25.0003" fx="25" fy="25.0003" r="22.3363" gradientTransform="matrix(0.509211,0,0,0.512763,2.072368,1.983197)">
<stop offset="0" style="stop-color:rgb(60.784314%,100%,51.372549%);stop-opacity:1;"/>
<stop offset="0.6042" style="stop-color:rgb(31.764706%,77.647059%,20.392157%);stop-opacity:1;"/>
<stop offset="1" style="stop-color:rgb(25.098039%,65.098039%,16.078431%);stop-opacity:1;"/>
</radialGradient>
</defs>
<g id="surface1">
<path style=" stroke:none;fill-rule:nonzero;fill:url(#radial0);" d="M 2.664062 21.859375 L 2.664062 7.746094 L 14.800781 0.6875 L 26.941406 7.746094 L 26.941406 21.859375 L 14.800781 28.917969 Z M 2.664062 21.859375 "/>
<path style=" stroke:none;fill-rule:nonzero;fill:rgb(0%,0%,0%);fill-opacity:1;" d="M 14.800781 1.367188 L 26.347656 8.082031 L 26.347656 21.523438 L 14.800781 28.238281 L 3.257812 21.523438 L 3.257812 8.082031 L 14.800781 1.367188 M 14.800781 0 L 2.074219 7.402344 L 2.074219 22.203125 L 14.800781 29.605469 L 27.53125 22.203125 L 27.53125 7.402344 Z M 14.800781 0 "/>
<path style=" stroke:none;fill-rule:nonzero;fill:rgb(0%,0%,0%);fill-opacity:1;" d="M 14.328125 17.402344 C 14.328125 18.152344 13.722656 18.757812 12.972656 18.757812 C 12.222656 18.757812 11.617188 18.152344 11.617188 17.402344 C 11.617188 16.652344 12.222656 16.046875 12.972656 16.046875 C 13.722656 16.046875 14.328125 16.652344 14.328125 17.402344 Z M 14.328125 17.402344 "/>
<path style=" stroke:none;fill-rule:nonzero;fill:rgb(0%,0%,0%);fill-opacity:1;" d="M 12.972656 19.125 C 12.515625 19.125 12.105469 18.945312 11.796875 18.65625 C 11.65625 18.84375 11.578125 19.066406 11.578125 19.308594 L 11.578125 20.835938 L 14.359375 20.835938 L 14.359375 19.308594 C 14.359375 19.066406 14.28125 18.84375 14.148438 18.65625 C 13.84375 18.945312 13.429688 19.125 12.972656 19.125 Z M 12.972656 19.125 "/>
<path style=" stroke:none;fill-rule:nonzero;fill:rgb(0%,0%,0%);fill-opacity:1;" d="M 17.988281 17.402344 C 17.988281 18.152344 17.382812 18.757812 16.632812 18.757812 C 15.882812 18.757812 15.277344 18.152344 15.277344 17.402344 C 15.277344 16.652344 15.882812 16.046875 16.632812 16.046875 C 17.382812 16.046875 17.988281 16.652344 17.988281 17.402344 Z M 17.988281 17.402344 "/>
<path style=" stroke:none;fill-rule:nonzero;fill:rgb(0%,0%,0%);fill-opacity:1;" d="M 16.632812 19.125 C 16.175781 19.125 15.761719 18.945312 15.453125 18.65625 C 15.320312 18.84375 15.242188 19.066406 15.242188 19.308594 L 15.242188 20.835938 L 18.015625 20.835938 L 18.015625 19.308594 C 18.015625 19.066406 17.941406 18.84375 17.804688 18.65625 C 17.5 18.945312 17.089844 19.125 16.632812 19.125 Z M 16.632812 19.125 "/>
<path style=" stroke:none;fill-rule:nonzero;fill:rgb(0%,0%,0%);fill-opacity:1;" d="M 20.472656 8.492188 L 9.132812 8.492188 C 8.890625 8.492188 8.691406 8.683594 8.691406 8.929688 L 8.691406 15 C 8.691406 15.242188 8.890625 15.433594 9.132812 15.433594 L 20.46875 15.433594 C 20.710938 15.433594 20.910156 15.242188 20.910156 15 L 20.910156 8.9375 C 20.914062 8.691406 20.710938 8.492188 20.472656 8.492188 Z M 20.359375 14.292969 C 20.359375 14.535156 20.167969 14.734375 19.925781 14.734375 L 9.679688 14.734375 C 9.4375 14.734375 9.242188 14.535156 9.242188 14.292969 L 9.242188 9.644531 C 9.242188 9.402344 9.4375 9.207031 9.679688 9.207031 L 19.925781 9.207031 C 20.167969 9.207031 20.359375 9.402344 20.359375 9.644531 Z M 20.359375 14.292969 "/>
<path style="fill:none;stroke-width:1;stroke-linecap:butt;stroke-linejoin:miter;stroke:rgb(0%,0%,0%);stroke-opacity:1;stroke-miterlimit:10;" d="M 28.579167 20.207292 L 21.421181 17.575 L 21.421181 22.839583 Z M 28.579167 20.207292 " transform="matrix(0.592105,0,0,0.592105,0,0)"/>
<path style="fill:none;stroke-width:1;stroke-linecap:round;stroke-linejoin:miter;stroke:rgb(0%,0%,0%);stroke-opacity:1;stroke-miterlimit:10;" d="M 18.934028 35.829514 C 18.934028 35.829514 17.687153 33.639236 19.910417 31.679861 " transform="matrix(0.592105,0,0,0.592105,0,0)"/>
<path style="fill:none;stroke-width:1;stroke-linecap:round;stroke-linejoin:miter;stroke:rgb(0%,0%,0%);stroke-opacity:1;stroke-miterlimit:10;" d="M 31.422569 35.829514 C 31.422569 35.829514 32.662847 33.639236 30.439583 31.679861 " transform="matrix(0.592105,0,0,0.592105,0,0)"/>
</g>
</svg>
