<?xml version="1.0" encoding="UTF-8"?>
<svg xmlns="http://www.w3.org/2000/svg" xmlns:xlink="http://www.w3.org/1999/xlink" width="30pt" height="30pt" viewBox="0 0 30 30" version="1.1">
<defs>
<radialGradient id="radial0" gradientUnits="userSpaceOnUse" cx="25" cy="25" fx="25" fy="25" r="22.8794" gradientTransform="matrix(0.513835,0,0,0.51742,2.091191,2.001209)">
<stop offset="0" style="stop-color:rgb(98.823529%,81.960784%,59.215686%);stop-opacity:1;"/>
<stop offset="0.7271" style="stop-color:rgb(99.607843%,35.294118%,7.45098%);stop-opacity:1;"/>
<stop offset="1" style="stop-color:rgb(86.666667%,14.117647%,0%);stop-opacity:1;"/>
</radialGradient>
</defs>
<g id="surface1">
<path style=" stroke:none;fill-rule:nonzero;fill:url(#radial0);" d="M 2.390625 22.230469 L 2.390625 7.640625 L 14.9375 0.347656 L 27.484375 7.640625 L 27.484375 22.230469 L 14.9375 29.523438 Z M 2.390625 22.230469 "/>
<path style=" stroke:none;fill-rule:nonzero;fill:rgb(0%,0%,0%);fill-opacity:1;" d="M 14.9375 0.691406 L 27.183594 7.8125 L 27.183594 22.0625 L 14.9375 29.179688 L 2.6875 22.058594 L 2.6875 7.8125 L 14.9375 0.691406 M 14.9375 0 L 2.089844 7.472656 L 2.089844 22.40625 L 14.9375 29.871094 L 27.78125 22.40625 L 27.78125 7.472656 Z M 14.9375 0 "/>
<path style=" stroke:none;fill-rule:nonzero;fill:rgb(0%,0%,0%);fill-opacity:1;" d="M 18.71875 15.527344 L 9.542969 15.527344 C 9.515625 15.316406 9.496094 15.09375 9.464844 14.871094 L 18.789062 14.871094 C 18.761719 15.09375 18.734375 15.316406 18.71875 15.527344 Z M 21.125 18.695312 C 20.855469 19.203125 20.296875 19.554688 19.628906 19.632812 C 19.507812 19.644531 19.371094 19.660156 19.21875 19.660156 C 18.882812 19.660156 18.476562 19.617188 18.078125 19.5625 C 17.753906 20.105469 17.210938 20.488281 16.25 20.699219 L 16.25 21.148438 L 11.996094 21.148438 L 11.996094 20.699219 C 9.550781 20.160156 9.785156 18.46875 9.578125 15.957031 L 18.667969 15.957031 C 18.664062 16.015625 18.660156 16.078125 18.660156 16.136719 C 19.566406 16.023438 20.605469 16.117188 21.078125 16.988281 C 21.503906 17.738281 21.300781 18.351562 21.125 18.695312 Z M 20.574219 17.199219 C 20.226562 16.683594 19.386719 16.539062 18.625 16.730469 C 18.574219 17.511719 18.53125 18.195312 18.390625 18.769531 C 18.75 18.859375 19.117188 18.921875 19.417969 18.90625 C 19.765625 18.886719 20.238281 18.855469 20.5625 18.453125 C 20.738281 18.246094 20.855469 17.632812 20.574219 17.199219 Z M 11.972656 10.570312 C 11.324219 12.097656 11.574219 13.394531 12.160156 14.128906 C 12.050781 12.613281 12.0625 11.964844 12.664062 10.6875 C 13.269531 9.414062 12.132812 8.570312 11.363281 8.21875 C 11.359375 8.226562 12.613281 9.035156 11.972656 10.570312 Z M 15.425781 10.476562 C 14.78125 12 15.027344 13.300781 15.613281 14.03125 C 15.507812 12.515625 15.515625 11.871094 16.117188 10.59375 C 16.722656 9.320312 15.589844 8.476562 14.820312 8.121094 C 14.808594 8.132812 16.0625 8.945312 15.425781 10.476562 Z M 13.703125 9.203125 C 13.0625 10.730469 13.304688 12.027344 13.890625 12.757812 C 13.785156 11.242188 13.792969 10.597656 14.402344 9.320312 C 15.003906 8.046875 13.871094 7.207031 13.097656 6.855469 C 13.09375 6.859375 14.351562 7.667969 13.703125 9.203125 Z M 13.703125 9.203125 "/>
</g>
</svg>
