<?xml version="1.0" encoding="UTF-8"?>
<svg xmlns="http://www.w3.org/2000/svg" xmlns:xlink="http://www.w3.org/1999/xlink" width="30pt" height="30pt" viewBox="0 0 30 30" version="1.1">
<defs>
<radialGradient id="radial0" gradientUnits="userSpaceOnUse" cx="25" cy="25.0003" fx="25" fy="25.0003" r="22.3363" gradientTransform="matrix(0.509211,0,0,0.512763,2.072368,1.983197)">
<stop offset="0" style="stop-color:rgb(60.784314%,100%,51.372549%);stop-opacity:1;"/>
<stop offset="0.6042" style="stop-color:rgb(31.764706%,77.647059%,20.392157%);stop-opacity:1;"/>
<stop offset="1" style="stop-color:rgb(25.098039%,65.098039%,16.078431%);stop-opacity:1;"/>
</radialGradient>
</defs>
<g id="surface1">
<path style=" stroke:none;fill-rule:nonzero;fill:url(#radial0);" d="M 2.664062 21.859375 L 2.664062 7.746094 L 14.800781 0.6875 L 26.941406 7.746094 L 26.941406 21.859375 L 14.800781 28.917969 Z M 2.664062 21.859375 "/>
<path style=" stroke:none;fill-rule:nonzero;fill:rgb(0%,0%,0%);fill-opacity:1;" d="M 14.800781 1.367188 L 26.347656 8.082031 L 26.347656 21.523438 L 14.800781 28.238281 L 3.257812 21.523438 L 3.257812 8.082031 L 14.800781 1.367188 M 14.800781 0 L 2.074219 7.402344 L 2.074219 22.203125 L 14.800781 29.605469 L 27.53125 22.203125 L 27.53125 7.402344 Z M 14.800781 0 "/>
<path style=" stroke:none;fill-rule:nonzero;fill:rgb(0.392157%,0%,0.784314%);fill-opacity:1;" d="M 18.378906 16.058594 C 18.226562 14.800781 17.539062 13.886719 16.691406 13.886719 L 12.914062 13.886719 C 12.0625 13.886719 11.375 14.800781 11.222656 16.058594 C 10.683594 16.367188 10.402344 16.957031 10.402344 17.640625 C 10.402344 18.0625 10.515625 18.457031 10.734375 18.769531 L 10.734375 20.140625 L 12.527344 20.140625 L 12.527344 19.457031 L 17.082031 19.457031 L 17.082031 20.140625 L 18.878906 20.140625 L 18.878906 18.769531 C 19.089844 18.460938 19.207031 18.070312 19.207031 17.640625 C 19.199219 16.953125 18.917969 16.367188 18.378906 16.058594 Z M 11.925781 18.230469 C 11.597656 18.230469 11.335938 17.972656 11.335938 17.640625 C 11.335938 17.308594 11.597656 17.046875 11.925781 17.046875 C 12.25 17.046875 12.511719 17.308594 12.511719 17.640625 C 12.511719 17.972656 12.25 18.230469 11.925781 18.230469 Z M 12.132812 15.820312 C 12.015625 15.820312 11.90625 15.832031 11.800781 15.851562 C 11.972656 15.027344 12.410156 14.425781 12.914062 14.425781 L 16.691406 14.425781 C 17.195312 14.425781 17.632812 15.027344 17.804688 15.851562 C 17.742188 15.84375 17.6875 15.839844 17.628906 15.832031 C 17.628906 15.828125 17.628906 15.820312 17.628906 15.820312 C 17.628906 15.300781 17.207031 14.878906 16.691406 14.878906 C 16.175781 14.878906 15.753906 15.308594 15.753906 15.820312 Z M 16.507812 18.164062 L 13.101562 18.164062 C 13.003906 18.164062 12.925781 18.082031 12.925781 17.984375 C 12.925781 17.882812 13.011719 17.804688 13.101562 17.804688 L 16.507812 17.804688 C 16.605469 17.804688 16.683594 17.886719 16.683594 17.984375 C 16.683594 18.082031 16.601562 18.164062 16.507812 18.164062 Z M 16.507812 17.652344 L 13.101562 17.652344 C 13.003906 17.652344 12.925781 17.566406 12.925781 17.464844 C 12.925781 17.367188 13.011719 17.285156 13.101562 17.285156 L 16.507812 17.285156 C 16.605469 17.285156 16.683594 17.367188 16.683594 17.464844 C 16.683594 17.566406 16.601562 17.652344 16.507812 17.652344 Z M 16.109375 15.820312 C 16.109375 15.5 16.371094 15.242188 16.691406 15.242188 C 17.011719 15.242188 17.273438 15.5 17.273438 15.820312 Z M 17.679688 18.230469 C 17.355469 18.230469 17.09375 17.972656 17.09375 17.640625 C 17.09375 17.308594 17.355469 17.046875 17.679688 17.046875 C 18.007812 17.046875 18.269531 17.308594 18.269531 17.640625 C 18.269531 17.964844 18.007812 18.230469 17.679688 18.230469 Z M 17.679688 18.230469 "/>
<path style=" stroke:none;fill-rule:nonzero;fill:rgb(0.392157%,0%,0.784314%);fill-opacity:1;" d="M 10.402344 9.386719 L 19.195312 9.386719 L 19.195312 10.109375 L 10.402344 10.109375 Z M 10.402344 9.386719 "/>
<path style=" stroke:none;fill-rule:nonzero;fill:rgb(0.392157%,0%,0.784314%);fill-opacity:1;" d="M 14.316406 12.179688 C 14.316406 12.449219 14.527344 12.667969 14.800781 12.667969 C 15.070312 12.667969 15.289062 12.449219 15.289062 12.179688 C 15.289062 11.90625 14.800781 11.054688 14.800781 11.054688 C 14.800781 11.054688 14.316406 11.910156 14.316406 12.179688 Z M 14.316406 12.179688 "/>
<path style=" stroke:none;fill-rule:nonzero;fill:rgb(0.392157%,0%,0.784314%);fill-opacity:1;" d="M 12.859375 11.375 C 12.859375 11.640625 13.070312 11.863281 13.34375 11.863281 C 13.613281 11.863281 13.832031 11.640625 13.832031 11.375 C 13.832031 11.101562 13.34375 10.25 13.34375 10.25 C 13.34375 10.25 12.859375 11.109375 12.859375 11.375 Z M 12.859375 11.375 "/>
<path style=" stroke:none;fill-rule:nonzero;fill:rgb(0.392157%,0%,0.784314%);fill-opacity:1;" d="M 15.773438 11.375 C 15.773438 11.640625 15.984375 11.863281 16.257812 11.863281 C 16.527344 11.863281 16.746094 11.640625 16.746094 11.375 C 16.746094 11.101562 16.257812 10.25 16.257812 10.25 C 16.257812 10.25 15.773438 11.109375 15.773438 11.375 Z M 15.773438 11.375 "/>
<path style=" stroke:none;fill-rule:nonzero;fill:rgb(0.392157%,0%,0.784314%);fill-opacity:1;" d="M 22.148438 14.359375 L 22.148438 13.632812 L 21.199219 13.632812 L 21.199219 9.566406 L 8.40625 9.566406 L 8.40625 13.632812 L 7.457031 13.632812 L 7.457031 14.359375 L 8.40625 14.359375 L 8.40625 14.472656 L 7.457031 14.472656 L 7.457031 15.191406 L 8.40625 15.191406 L 8.40625 15.3125 L 7.457031 15.3125 L 7.457031 16.03125 L 8.40625 16.03125 L 8.40625 16.148438 L 7.457031 16.148438 L 7.457031 16.867188 L 8.40625 16.867188 L 8.40625 16.988281 L 7.457031 16.988281 L 7.457031 17.707031 L 8.40625 17.707031 L 8.40625 17.820312 L 7.457031 17.820312 L 7.457031 18.546875 L 8.40625 18.546875 L 8.40625 18.65625 L 7.457031 18.65625 L 7.457031 19.378906 L 8.40625 19.378906 L 8.40625 19.496094 L 7.457031 19.496094 L 7.457031 20.21875 L 9.722656 20.21875 L 9.722656 19.496094 L 8.769531 19.496094 L 8.769531 19.378906 L 9.722656 19.378906 L 9.722656 18.65625 L 8.769531 18.65625 L 8.769531 18.546875 L 9.722656 18.546875 L 9.722656 17.820312 L 8.769531 17.820312 L 8.769531 17.707031 L 9.722656 17.707031 L 9.722656 16.988281 L 8.769531 16.988281 L 8.769531 16.867188 L 9.722656 16.867188 L 9.722656 16.148438 L 8.769531 16.148438 L 8.769531 16.03125 L 9.722656 16.03125 L 9.722656 15.3125 L 8.769531 15.3125 L 8.769531 15.191406 L 9.722656 15.191406 L 9.722656 14.472656 L 8.769531 14.472656 L 8.769531 14.359375 L 9.722656 14.359375 L 9.722656 13.632812 L 8.769531 13.632812 L 8.769531 9.929688 L 20.835938 9.929688 L 20.835938 13.632812 L 19.882812 13.632812 L 19.882812 14.359375 L 20.835938 14.359375 L 20.835938 14.472656 L 19.882812 14.472656 L 19.882812 15.191406 L 20.835938 15.191406 L 20.835938 15.3125 L 19.882812 15.3125 L 19.882812 16.03125 L 20.835938 16.03125 L 20.835938 16.148438 L 19.882812 16.148438 L 19.882812 16.867188 L 20.835938 16.867188 L 20.835938 16.988281 L 19.882812 16.988281 L 19.882812 17.707031 L 20.835938 17.707031 L 20.835938 17.820312 L 19.882812 17.820312 L 19.882812 18.546875 L 20.835938 18.546875 L 20.835938 18.65625 L 19.882812 18.65625 L 19.882812 19.378906 L 20.835938 19.378906 L 20.835938 19.496094 L 19.882812 19.496094 L 19.882812 20.21875 L 22.148438 20.21875 L 22.148438 19.496094 L 21.199219 19.496094 L 21.199219 19.378906 L 22.148438 19.378906 L 22.148438 18.65625 L 21.199219 18.65625 L 21.199219 18.546875 L 22.148438 18.546875 L 22.148438 17.820312 L 21.199219 17.820312 L 21.199219 17.707031 L 22.148438 17.707031 L 22.148438 16.988281 L 21.199219 16.988281 L 21.199219 16.867188 L 22.148438 16.867188 L 22.148438 16.148438 L 21.199219 16.148438 L 21.199219 16.03125 L 22.148438 16.03125 L 22.148438 15.3125 L 21.199219 15.3125 L 21.199219 15.191406 L 22.148438 15.191406 L 22.148438 14.472656 L 21.199219 14.472656 L 21.199219 14.359375 Z M 22.148438 14.359375 "/>
</g>
</svg>
