<?xml version="1.0" encoding="UTF-8"?>
<svg xmlns="http://www.w3.org/2000/svg" xmlns:xlink="http://www.w3.org/1999/xlink" width="30pt" height="30pt" viewBox="0 0 30 30" version="1.1">
<defs>
<radialGradient id="radial0" gradientUnits="userSpaceOnUse" cx="25" cy="25.0003" fx="25" fy="25.0003" r="22.3363" gradientTransform="matrix(0.509211,0,0,0.512763,2.072368,1.983197)">
<stop offset="0" style="stop-color:rgb(60.784314%,100%,51.372549%);stop-opacity:1;"/>
<stop offset="0.6042" style="stop-color:rgb(31.764706%,77.647059%,20.392157%);stop-opacity:1;"/>
<stop offset="1" style="stop-color:rgb(25.098039%,65.098039%,16.078431%);stop-opacity:1;"/>
</radialGradient>
</defs>
<g id="surface1">
<path style=" stroke:none;fill-rule:nonzero;fill:url(#radial0);" d="M 2.664062 21.859375 L 2.664062 7.746094 L 14.800781 0.6875 L 26.941406 7.746094 L 26.941406 21.859375 L 14.800781 28.917969 Z M 2.664062 21.859375 "/>
<path style=" stroke:none;fill-rule:nonzero;fill:rgb(0%,0%,0%);fill-opacity:1;" d="M 14.800781 1.367188 L 26.347656 8.082031 L 26.347656 21.523438 L 14.800781 28.238281 L 3.257812 21.523438 L 3.257812 8.082031 L 14.800781 1.367188 M 14.800781 0 L 2.074219 7.402344 L 2.074219 22.203125 L 14.800781 29.605469 L 27.53125 22.203125 L 27.53125 7.402344 Z M 14.800781 0 "/>
<path style=" stroke:none;fill-rule:nonzero;fill:rgb(0%,0%,0%);fill-opacity:1;" d="M 19.242188 19.300781 C 19.542969 19.609375 19.566406 20.089844 19.289062 20.367188 C 19.011719 20.648438 18.535156 20.628906 18.230469 20.324219 L 15.097656 16.855469 C 14.886719 16.855469 14.644531 16.804688 14.375 16.699219 L 15.519531 15.550781 L 16.261719 16.300781 Z M 12.652344 15.5 L 14.0625 14.085938 L 12.636719 12.648438 C 11.503906 11.511719 10.382812 10.375 9.699219 9.6875 C 9.601562 9.589844 9.488281 9.542969 9.347656 9.5625 C 9.253906 9.574219 9.117188 9.664062 9.089844 9.898438 C 8.988281 10.867188 9.691406 12.535156 12.179688 15.039062 C 12.347656 15.210938 12.496094 15.367188 12.652344 15.5 Z M 15.269531 11.554688 L 15.453125 11.367188 C 15.453125 11.367188 15.453125 11.367188 15.453125 11.363281 Z M 20.535156 11.234375 C 20.371094 11.070312 20.15625 11.03125 20.042969 11.144531 L 17.808594 13.386719 C 17.699219 13.5 17.488281 13.46875 17.347656 13.328125 C 17.207031 13.1875 17.179688 12.980469 17.289062 12.867188 L 19.519531 10.625 C 19.632812 10.507812 19.59375 10.292969 19.433594 10.128906 C 19.273438 9.972656 19.054688 9.933594 18.941406 10.042969 L 16.710938 12.285156 C 16.59375 12.398438 16.390625 12.371094 16.25 12.226562 C 16.105469 12.085938 16.082031 11.875 16.1875 11.765625 L 18.417969 9.523438 C 18.535156 9.410156 18.492188 9.191406 18.335938 9.027344 C 18.179688 8.871094 17.960938 8.828125 17.847656 8.9375 L 15.433594 11.367188 C 14.648438 12.160156 14.902344 12.714844 15.355469 13.210938 L 9.167969 19.457031 C 8.863281 19.765625 8.839844 20.246094 9.117188 20.523438 C 9.398438 20.800781 9.875 20.78125 10.175781 20.472656 L 16.378906 14.234375 C 16.875 14.683594 17.425781 14.9375 18.214844 14.148438 L 20.617188 11.722656 C 20.730469 11.609375 20.691406 11.390625 20.535156 11.234375 Z M 20.535156 11.234375 "/>
</g>
</svg>
