<?xml version="1.0" encoding="UTF-8"?>
<svg xmlns="http://www.w3.org/2000/svg" xmlns:xlink="http://www.w3.org/1999/xlink" width="30pt" height="30pt" viewBox="0 0 30 30" version="1.1">
<defs>
<radialGradient id="radial0" gradientUnits="userSpaceOnUse" cx="25" cy="25.0003" fx="25" fy="25.0003" r="22.3363" gradientTransform="matrix(0.509211,0,0,0.512763,2.072368,1.983197)">
<stop offset="0" style="stop-color:rgb(98.823529%,81.960784%,59.215686%);stop-opacity:1;"/>
<stop offset="0.6042" style="stop-color:rgb(100%,76.470588%,45.098039%);stop-opacity:1;"/>
<stop offset="1" style="stop-color:rgb(100%,50.196078%,0.392157%);stop-opacity:1;"/>
</radialGradient>
</defs>
<g id="surface1">
<path style=" stroke:none;fill-rule:nonzero;fill:url(#radial0);" d="M 2.664062 21.859375 L 2.664062 7.746094 L 14.800781 0.6875 L 26.941406 7.746094 L 26.941406 21.859375 L 14.800781 28.917969 Z M 2.664062 21.859375 "/>
<path style=" stroke:none;fill-rule:nonzero;fill:rgb(0%,0%,0%);fill-opacity:1;" d="M 14.800781 1.367188 L 26.347656 8.082031 L 26.347656 21.523438 L 14.800781 28.238281 L 3.257812 21.523438 L 3.257812 8.082031 L 14.800781 1.367188 M 14.800781 0 L 2.074219 7.402344 L 2.074219 22.203125 L 14.800781 29.605469 L 27.53125 22.203125 L 27.53125 7.402344 Z M 14.800781 0 "/>
<path style=" stroke:none;fill-rule:nonzero;fill:rgb(0%,0%,0%);fill-opacity:1;" d="M 15.863281 11.171875 C 15.863281 11.171875 17.871094 9.167969 18.09375 6.671875 C 18.09375 6.671875 16.648438 7.496094 15.761719 7.609375 C 14.867188 7.722656 13.316406 7.679688 12.28125 8.441406 C 11.246094 9.207031 11.066406 10.398438 11.375 11.058594 C 11.683594 11.722656 12.4375 12.09375 12.933594 12.179688 C 12.933594 12.179688 12.59375 12.914062 12.933594 13.441406 C 13.269531 13.960938 14.417969 14.335938 15.945312 13.695312 C 17.472656 13.054688 18.367188 11.089844 18.367188 11.089844 C 18.367188 11.089844 17.144531 11.441406 15.863281 11.171875 Z M 12.589844 10.710938 C 12.816406 10.417969 13.089844 10.171875 13.390625 9.960938 C 13.6875 9.734375 14.054688 9.578125 14.40625 9.480469 C 15.066406 9.28125 15.644531 8.894531 16.28125 8.527344 C 16.0625 8.824219 15.804688 9.082031 15.511719 9.3125 C 15.222656 9.550781 14.878906 9.722656 14.515625 9.839844 C 13.832031 10.011719 13.246094 10.371094 12.589844 10.710938 Z M 15.992188 12.449219 C 15.753906 12.589844 15.496094 12.683594 15.222656 12.738281 C 14.714844 12.792969 14.257812 13 13.75 13.179688 C 13.941406 12.992188 14.164062 12.84375 14.402344 12.714844 C 14.636719 12.574219 14.914062 12.503906 15.175781 12.460938 C 15.671875 12.386719 16.125 12.15625 16.625 11.953125 C 16.441406 12.152344 16.226562 12.308594 15.992188 12.449219 Z M 15.992188 12.449219 "/>
<path style=" stroke:none;fill-rule:nonzero;fill:rgb(0%,0%,0%);fill-opacity:1;" d="M 10.394531 14.59375 L 10.394531 16.183594 C 9.886719 16.117188 9.476562 16.074219 9.144531 16.046875 C 8.8125 16.015625 8.519531 16.003906 8.265625 16.003906 C 7.84375 16.003906 7.566406 16.019531 7.433594 16.058594 C 7.292969 16.09375 7.234375 16.160156 7.234375 16.253906 C 7.234375 16.414062 7.496094 16.492188 8.019531 16.492188 C 8.210938 16.492188 8.363281 16.492188 8.492188 16.496094 C 9.242188 16.507812 9.789062 16.632812 10.117188 16.867188 C 10.449219 17.109375 10.617188 17.472656 10.617188 17.984375 C 10.617188 18.636719 10.351562 19.136719 9.8125 19.46875 C 9.269531 19.796875 8.480469 19.964844 7.421875 19.964844 C 6.960938 19.964844 6.503906 19.941406 6.039062 19.898438 C 5.578125 19.859375 5.113281 19.796875 4.640625 19.71875 L 4.640625 18.230469 C 5.148438 18.3125 5.625 18.371094 6.066406 18.414062 C 6.515625 18.457031 6.910156 18.480469 7.265625 18.480469 C 7.484375 18.480469 7.632812 18.460938 7.714844 18.433594 C 7.796875 18.402344 7.832031 18.34375 7.832031 18.269531 C 7.832031 18.195312 7.808594 18.140625 7.757812 18.105469 C 7.703125 18.070312 7.613281 18.050781 7.484375 18.039062 C 7.425781 18.039062 7.246094 18.035156 6.945312 18.023438 C 6.640625 18.015625 6.398438 18 6.199219 17.976562 C 5.582031 17.898438 5.132812 17.730469 4.855469 17.476562 C 4.574219 17.222656 4.441406 16.863281 4.441406 16.378906 C 4.441406 15.675781 4.714844 15.164062 5.257812 14.832031 C 5.800781 14.5 6.652344 14.335938 7.808594 14.335938 C 8.21875 14.335938 8.640625 14.359375 9.070312 14.402344 C 9.503906 14.441406 9.941406 14.511719 10.394531 14.59375 Z M 10.394531 14.59375 "/>
<path style=" stroke:none;fill-rule:nonzero;fill:rgb(0%,0%,0%);fill-opacity:1;" d="M 11.367188 19.785156 L 11.367188 14.503906 L 15.917969 14.503906 C 16.683594 14.503906 17.265625 14.667969 17.65625 14.992188 C 18.046875 15.320312 18.242188 15.792969 18.242188 16.425781 C 18.242188 17.121094 18.007812 17.65625 17.53125 18.046875 C 17.058594 18.4375 16.394531 18.632812 15.550781 18.632812 L 14.085938 18.632812 L 14.085938 19.785156 Z M 14.082031 17.152344 L 14.59375 17.152344 C 14.957031 17.152344 15.210938 17.113281 15.359375 17.023438 C 15.507812 16.933594 15.585938 16.792969 15.585938 16.582031 C 15.585938 16.40625 15.519531 16.28125 15.386719 16.214844 C 15.257812 16.140625 15.011719 16.105469 14.65625 16.105469 L 14.085938 16.105469 L 14.085938 17.152344 Z M 14.082031 17.152344 "/>
<path style=" stroke:none;fill-rule:nonzero;fill:rgb(0%,0%,0%);fill-opacity:1;" d="M 17.851562 19.785156 L 19.554688 14.503906 L 23.726562 14.503906 L 25.4375 19.785156 L 22.683594 19.785156 L 22.476562 19.109375 L 20.792969 19.109375 L 20.578125 19.785156 Z M 21.101562 17.644531 L 22.195312 17.644531 L 21.863281 16.621094 C 21.828125 16.484375 21.785156 16.335938 21.75 16.183594 C 21.714844 16.027344 21.675781 15.867188 21.652344 15.699219 C 21.621094 15.882812 21.585938 16.050781 21.558594 16.207031 C 21.53125 16.359375 21.488281 16.503906 21.445312 16.625 Z M 21.101562 17.644531 "/>
</g>
</svg>
