<?xml version="1.0" encoding="UTF-8"?>
<svg xmlns="http://www.w3.org/2000/svg" xmlns:xlink="http://www.w3.org/1999/xlink" width="30pt" height="30pt" viewBox="0 0 30 30" version="1.1">
<defs>
<radialGradient id="radial0" gradientUnits="userSpaceOnUse" cx="25" cy="25.0003" fx="25" fy="25.0003" r="22.3363" gradientTransform="matrix(0.509211,0,0,0.512763,2.072368,1.983197)">
<stop offset="0" style="stop-color:rgb(98.823529%,81.960784%,59.215686%);stop-opacity:1;"/>
<stop offset="0.6042" style="stop-color:rgb(100%,76.470588%,45.098039%);stop-opacity:1;"/>
<stop offset="1" style="stop-color:rgb(100%,50.196078%,0.392157%);stop-opacity:1;"/>
</radialGradient>
</defs>
<g id="surface1">
<path style=" stroke:none;fill-rule:nonzero;fill:url(#radial0);" d="M 2.664062 21.859375 L 2.664062 7.746094 L 14.800781 0.6875 L 26.941406 7.746094 L 26.941406 21.859375 L 14.800781 28.917969 Z M 2.664062 21.859375 "/>
<path style=" stroke:none;fill-rule:nonzero;fill:rgb(0%,0%,0%);fill-opacity:1;" d="M 14.800781 1.367188 L 26.347656 8.082031 L 26.347656 21.523438 L 14.800781 28.238281 L 3.257812 21.523438 L 3.257812 8.082031 L 14.800781 1.367188 M 14.800781 0 L 2.074219 7.402344 L 2.074219 22.203125 L 14.800781 29.605469 L 27.53125 22.203125 L 27.53125 7.402344 Z M 14.800781 0 "/>
<path style=" stroke:none;fill-rule:nonzero;fill:rgb(0%,0%,0%);fill-opacity:1;" d="M 14.988281 20.613281 L 13.742188 19.367188 C 13.652344 19.277344 13.507812 19.277344 13.417969 19.367188 L 11.3125 21.472656 C 11.226562 21.558594 11.226562 21.707031 11.3125 21.796875 L 11.765625 22.246094 L 10.839844 23.167969 L 10.308594 24.046875 L 11.1875 23.511719 L 12.109375 22.589844 L 12.558594 23.039062 C 12.648438 23.128906 12.792969 23.128906 12.882812 23.039062 L 14.988281 20.9375 C 15.078125 20.847656 15.078125 20.699219 14.988281 20.613281 Z M 14.988281 20.613281 "/>
<path style=" stroke:none;fill-rule:nonzero;fill:rgb(0%,0%,0%);fill-opacity:1;" d="M 15.753906 22.351562 C 15.566406 22.351562 15.382812 22.28125 15.234375 22.136719 L 11.882812 18.789062 C 11.785156 18.6875 11.785156 18.523438 11.882812 18.417969 C 11.984375 18.316406 12.152344 18.316406 12.25 18.417969 L 15.601562 21.773438 C 15.683594 21.851562 15.820312 21.851562 15.90625 21.773438 L 18.710938 18.964844 C 18.753906 18.921875 18.777344 18.871094 18.777344 18.816406 C 18.777344 18.757812 18.753906 18.703125 18.710938 18.667969 L 15.359375 15.320312 C 15.257812 15.21875 15.257812 15.054688 15.359375 14.949219 C 15.457031 14.847656 15.628906 14.847656 15.726562 14.949219 L 19.078125 18.304688 C 19.210938 18.4375 19.289062 18.625 19.289062 18.824219 C 19.289062 19.019531 19.210938 19.199219 19.078125 19.34375 L 16.269531 22.148438 C 16.128906 22.28125 15.945312 22.351562 15.753906 22.351562 Z M 15.753906 22.351562 "/>
<path style=" stroke:none;fill-rule:nonzero;fill:rgb(0%,0%,0%);fill-opacity:1;" d="M 15.308594 16.523438 L 16.363281 17.578125 L 14.523438 19.414062 L 13.46875 18.359375 Z M 15.308594 16.523438 "/>
<path style=" stroke:none;fill-rule:nonzero;fill:rgb(0%,0%,0%);fill-opacity:1;" d="M 16.78125 18 L 17.835938 19.050781 L 15.996094 20.890625 L 14.941406 19.832031 Z M 16.78125 18 "/>
<path style=" stroke:none;fill-rule:nonzero;fill:rgb(0%,0%,0%);fill-opacity:1;" d="M 16.515625 16.089844 L 16.796875 16.367188 L 15.796875 17.367188 L 15.515625 17.085938 Z M 16.515625 16.089844 "/>
<path style=" stroke:none;fill-rule:nonzero;fill:rgb(0%,0%,0%);fill-opacity:1;" d="M 17.988281 17.5625 L 18.269531 17.84375 L 17.269531 18.839844 L 16.988281 18.5625 Z M 17.988281 17.5625 "/>
<path style=" stroke:none;fill-rule:nonzero;fill:rgb(0%,0%,0%);fill-opacity:1;" d="M 17.796875 17.222656 C 17.730469 17.222656 17.667969 17.199219 17.621094 17.152344 C 17.519531 17.054688 17.519531 16.898438 17.621094 16.800781 C 18.34375 16.074219 18.355469 14.902344 17.640625 14.1875 C 17.539062 14.085938 17.539062 13.929688 17.640625 13.832031 C 17.738281 13.730469 17.894531 13.730469 17.996094 13.832031 C 18.902344 14.746094 18.894531 16.230469 17.976562 17.152344 C 17.929688 17.199219 17.863281 17.222656 17.796875 17.222656 Z M 17.796875 17.222656 "/>
<path style=" stroke:none;fill-rule:nonzero;fill:rgb(0%,0%,0%);fill-opacity:1;" d="M 7.785156 13.695312 L 6.691406 14.269531 L 4.636719 10.351562 L 4.023438 10.671875 L 3.167969 9.035156 L 5.480469 7.820312 L 6.339844 9.457031 L 5.730469 9.777344 Z M 6.703125 14.160156 L 7.691406 13.632812 L 5.636719 9.71875 L 6.246094 9.398438 L 5.476562 7.933594 L 3.269531 9.09375 L 4.039062 10.558594 L 4.648438 10.238281 Z M 7.496094 13.523438 L 6.707031 13.9375 L 4.652344 10.019531 L 4.042969 10.339844 L 3.449219 9.214844 L 5.464844 8.160156 L 6.054688 9.28125 L 5.445312 9.609375 Z M 7.496094 13.523438 "/>
<path style=" stroke:none;fill-rule:nonzero;fill:rgb(0%,0%,0%);fill-opacity:1;" d="M 11.925781 12.273438 L 10.628906 12.667969 L 10.226562 11.929688 L 9.300781 12.207031 L 9.367188 13.042969 L 8.09375 13.429688 L 7.746094 6.980469 L 8.640625 6.707031 Z M 10.640625 12.5625 L 11.8125 12.207031 L 8.628906 6.828125 L 7.800781 7.078125 L 8.140625 13.324219 L 9.296875 12.972656 L 9.234375 12.140625 L 10.238281 11.835938 Z M 11.589844 12.074219 L 10.664062 12.359375 L 10.261719 11.621094 L 9.101562 11.976562 L 9.167969 12.8125 L 8.253906 13.089844 L 7.941406 7.234375 L 8.609375 7.035156 Z M 9.707031 10.585938 L 8.78125 8.792969 L 9.003906 10.800781 Z M 8.96875 9.414062 L 9.503906 10.445312 L 9.101562 10.570312 Z M 9.398438 10.382812 L 9.066406 9.734375 L 9.144531 10.457031 Z M 9.398438 10.382812 "/>
<path style=" stroke:none;fill-rule:nonzero;fill:rgb(0%,0%,0%);fill-opacity:1;" d="M 13.585938 12.160156 L 12.359375 12.308594 L 11.820312 7.921875 L 11.136719 8.007812 L 10.914062 6.175781 L 13.507812 5.855469 L 13.730469 7.6875 L 13.046875 7.765625 Z M 12.40625 12.207031 L 13.519531 12.074219 L 12.980469 7.6875 L 13.660156 7.601562 L 13.457031 5.964844 L 10.984375 6.265625 L 11.1875 7.90625 L 11.867188 7.820312 Z M 13.375 11.894531 L 12.492188 12 L 11.953125 7.613281 L 11.277344 7.699219 L 11.121094 6.4375 L 13.375 6.15625 L 13.53125 7.421875 L 12.84375 7.5 Z M 13.375 11.894531 "/>
<path style=" stroke:none;fill-rule:nonzero;fill:rgb(0%,0%,0%);fill-opacity:1;" d="M 16.027344 12.109375 L 14.792969 12.09375 L 14.84375 7.667969 L 14.160156 7.664062 L 14.183594 5.8125 L 16.792969 5.851562 L 16.769531 7.699219 L 16.082031 7.691406 Z M 14.847656 11.996094 L 15.96875 12.007812 L 16.019531 7.585938 L 16.710938 7.589844 L 16.734375 5.941406 L 14.238281 5.910156 L 14.21875 7.558594 L 14.910156 7.566406 Z M 15.855469 11.820312 L 14.96875 11.808594 L 15.023438 7.382812 L 14.335938 7.378906 L 14.351562 6.105469 L 16.621094 6.132812 L 16.601562 7.410156 L 15.910156 7.394531 Z M 15.855469 11.820312 "/>
<path style=" stroke:none;fill-rule:nonzero;fill:rgb(0%,0%,0%);fill-opacity:1;" d="M 21.210938 9.71875 C 21.125 10.152344 20.996094 10.558594 20.820312 10.929688 C 20.640625 11.296875 20.433594 11.609375 20.203125 11.867188 C 19.964844 12.121094 19.710938 12.308594 19.441406 12.4375 C 19.167969 12.558594 18.894531 12.59375 18.613281 12.539062 C 18.335938 12.484375 18.09375 12.359375 17.886719 12.144531 C 17.679688 11.929688 17.511719 11.65625 17.390625 11.332031 C 17.265625 11.003906 17.1875 10.640625 17.15625 10.230469 C 17.132812 9.820312 17.15625 9.402344 17.242188 8.964844 C 17.324219 8.527344 17.453125 8.121094 17.632812 7.757812 C 17.808594 7.390625 18.015625 7.078125 18.25 6.820312 C 18.484375 6.566406 18.738281 6.375 19.011719 6.253906 C 19.285156 6.128906 19.554688 6.09375 19.835938 6.144531 C 20.113281 6.199219 20.359375 6.328125 20.566406 6.550781 C 20.769531 6.769531 20.9375 7.035156 21.0625 7.359375 C 21.1875 7.6875 21.261719 8.054688 21.289062 8.460938 C 21.320312 8.851562 21.289062 9.277344 21.210938 9.71875 Z M 21.152344 9.707031 C 21.234375 9.269531 21.261719 8.859375 21.234375 8.460938 C 21.203125 8.0625 21.132812 7.710938 21.007812 7.402344 C 20.882812 7.09375 20.722656 6.828125 20.523438 6.617188 C 20.324219 6.410156 20.082031 6.285156 19.808594 6.234375 C 19.542969 6.183594 19.277344 6.21875 19.011719 6.335938 C 18.746094 6.453125 18.503906 6.636719 18.273438 6.882812 C 18.039062 7.125 17.847656 7.433594 17.675781 7.785156 C 17.5 8.140625 17.378906 8.539062 17.296875 8.96875 C 17.210938 9.402344 17.1875 9.816406 17.210938 10.214844 C 17.234375 10.613281 17.3125 10.96875 17.4375 11.277344 C 17.5625 11.578125 17.722656 11.851562 17.921875 12.054688 C 18.125 12.261719 18.359375 12.394531 18.632812 12.441406 C 18.898438 12.492188 19.167969 12.457031 19.433594 12.339844 C 19.699219 12.21875 19.941406 12.039062 20.171875 11.796875 C 20.398438 11.546875 20.601562 11.246094 20.769531 10.890625 C 20.945312 10.535156 21.066406 10.136719 21.152344 9.707031 Z M 21.035156 9.679688 C 20.957031 10.089844 20.84375 10.46875 20.679688 10.804688 C 20.523438 11.144531 20.339844 11.425781 20.125 11.65625 C 19.914062 11.886719 19.683594 12.054688 19.433594 12.164062 C 19.1875 12.28125 18.929688 12.308594 18.675781 12.257812 C 18.414062 12.207031 18.191406 12.085938 18 11.894531 C 17.808594 11.699219 17.65625 11.464844 17.542969 11.171875 C 17.429688 10.882812 17.363281 10.550781 17.335938 10.175781 C 17.3125 9.808594 17.335938 9.414062 17.421875 9 C 17.496094 8.59375 17.617188 8.210938 17.773438 7.875 C 17.9375 7.535156 18.117188 7.253906 18.328125 7.023438 C 18.546875 6.792969 18.777344 6.625 19.023438 6.515625 C 19.273438 6.398438 19.527344 6.371094 19.78125 6.425781 C 20.042969 6.472656 20.269531 6.59375 20.457031 6.785156 C 20.648438 6.980469 20.800781 7.214844 20.914062 7.507812 C 21.023438 7.796875 21.097656 8.128906 21.121094 8.503906 C 21.140625 8.882812 21.113281 9.269531 21.035156 9.679688 Z M 20.160156 9.515625 C 20.207031 9.277344 20.21875 9.058594 20.207031 8.851562 C 20.195312 8.644531 20.160156 8.453125 20.105469 8.289062 C 20.054688 8.121094 19.972656 7.996094 19.875 7.886719 C 19.78125 7.785156 19.664062 7.722656 19.539062 7.699219 C 19.410156 7.675781 19.277344 7.691406 19.148438 7.753906 C 19.019531 7.808594 18.898438 7.910156 18.789062 8.042969 C 18.675781 8.171875 18.574219 8.339844 18.492188 8.527344 C 18.402344 8.714844 18.335938 8.929688 18.296875 9.160156 C 18.25 9.398438 18.238281 9.613281 18.25 9.820312 C 18.261719 10.03125 18.296875 10.21875 18.347656 10.386719 C 18.402344 10.550781 18.484375 10.683594 18.582031 10.789062 C 18.675781 10.894531 18.792969 10.960938 18.921875 10.984375 C 19.054688 11.003906 19.1875 10.988281 19.3125 10.929688 C 19.445312 10.871094 19.5625 10.769531 19.675781 10.640625 C 19.785156 10.507812 19.886719 10.34375 19.972656 10.152344 C 20.050781 9.960938 20.117188 9.753906 20.160156 9.515625 Z M 20.042969 9.492188 C 19.960938 9.917969 19.816406 10.253906 19.609375 10.496094 C 19.402344 10.738281 19.1875 10.839844 18.945312 10.792969 C 18.710938 10.746094 18.539062 10.574219 18.4375 10.273438 C 18.335938 9.972656 18.324219 9.601562 18.40625 9.179688 C 18.492188 8.75 18.632812 8.414062 18.84375 8.171875 C 19.046875 7.929688 19.265625 7.828125 19.503906 7.875 C 19.742188 7.921875 19.914062 8.09375 20.015625 8.394531 C 20.113281 8.695312 20.117188 9.066406 20.042969 9.492188 Z M 19.984375 9.480469 C 20.0625 9.070312 20.054688 8.726562 19.960938 8.449219 C 19.863281 8.171875 19.707031 8.011719 19.484375 7.96875 C 19.265625 7.929688 19.054688 8.019531 18.871094 8.242188 C 18.679688 8.464844 18.550781 8.78125 18.46875 9.195312 C 18.382812 9.609375 18.394531 9.945312 18.492188 10.226562 C 18.589844 10.503906 18.746094 10.664062 18.964844 10.703125 C 19.1875 10.746094 19.398438 10.660156 19.582031 10.429688 C 19.765625 10.207031 19.90625 9.894531 19.984375 9.480469 Z M 19.984375 9.480469 "/>
<path style=" stroke:none;fill-rule:nonzero;fill:rgb(0%,0%,0%);fill-opacity:1;" d="M 25.628906 11.628906 C 25.4375 12.039062 25.21875 12.394531 24.957031 12.714844 C 24.699219 13.027344 24.425781 13.28125 24.136719 13.476562 C 23.84375 13.671875 23.554688 13.789062 23.257812 13.84375 C 22.964844 13.898438 22.691406 13.867188 22.433594 13.75 C 22.179688 13.628906 21.980469 13.441406 21.828125 13.1875 C 21.671875 12.925781 21.574219 12.625 21.53125 12.28125 C 21.496094 11.9375 21.507812 11.566406 21.574219 11.160156 C 21.648438 10.757812 21.773438 10.355469 21.960938 9.945312 C 22.148438 9.535156 22.371094 9.183594 22.632812 8.863281 C 22.890625 8.550781 23.164062 8.296875 23.453125 8.097656 C 23.742188 7.90625 24.035156 7.785156 24.328125 7.734375 C 24.625 7.679688 24.898438 7.710938 25.152344 7.828125 C 25.40625 7.945312 25.609375 8.128906 25.761719 8.390625 C 25.917969 8.648438 26.011719 8.949219 26.050781 9.296875 C 26.09375 9.640625 26.082031 10.011719 26.011719 10.414062 C 25.945312 10.816406 25.816406 11.222656 25.628906 11.628906 Z M 25.574219 11.605469 C 25.757812 11.203125 25.882812 10.8125 25.949219 10.417969 C 26.015625 10.03125 26.035156 9.667969 25.988281 9.335938 C 25.945312 9.003906 25.851562 8.714844 25.703125 8.460938 C 25.554688 8.210938 25.359375 8.03125 25.109375 7.917969 C 24.863281 7.800781 24.597656 7.765625 24.3125 7.820312 C 24.027344 7.875 23.742188 7.988281 23.464844 8.175781 C 23.1875 8.359375 22.921875 8.609375 22.667969 8.914062 C 22.414062 9.222656 22.195312 9.566406 22.007812 9.972656 C 21.828125 10.375 21.699219 10.769531 21.628906 11.15625 C 21.5625 11.546875 21.546875 11.90625 21.59375 12.238281 C 21.636719 12.570312 21.730469 12.859375 21.878906 13.113281 C 22.027344 13.363281 22.222656 13.546875 22.46875 13.660156 C 22.71875 13.773438 22.988281 13.808594 23.269531 13.753906 C 23.554688 13.699219 23.839844 13.589844 24.117188 13.398438 C 24.394531 13.214844 24.660156 12.96875 24.914062 12.667969 C 25.171875 12.359375 25.386719 12 25.574219 11.605469 Z M 25.464844 11.558594 C 25.296875 11.9375 25.085938 12.273438 24.851562 12.5625 C 24.613281 12.855469 24.367188 13.085938 24.105469 13.257812 C 23.84375 13.429688 23.578125 13.535156 23.308594 13.585938 C 23.042969 13.628906 22.789062 13.597656 22.554688 13.488281 C 22.316406 13.375 22.125 13.203125 21.984375 12.972656 C 21.839844 12.742188 21.753906 12.46875 21.71875 12.160156 C 21.675781 11.855469 21.695312 11.519531 21.761719 11.144531 C 21.828125 10.769531 21.941406 10.398438 22.117188 10.019531 C 22.292969 9.640625 22.5 9.300781 22.734375 9.011719 C 22.976562 8.722656 23.222656 8.492188 23.484375 8.320312 C 23.742188 8.148438 24.007812 8.042969 24.277344 7.996094 C 24.542969 7.945312 24.796875 7.984375 25.035156 8.085938 C 25.273438 8.199219 25.460938 8.371094 25.605469 8.605469 C 25.746094 8.835938 25.835938 9.105469 25.871094 9.414062 C 25.914062 9.722656 25.894531 10.0625 25.828125 10.429688 C 25.761719 10.804688 25.640625 11.171875 25.464844 11.558594 Z M 24.660156 11.1875 C 24.761719 10.96875 24.832031 10.757812 24.867188 10.550781 C 24.902344 10.34375 24.921875 10.152344 24.902344 9.984375 C 24.886719 9.8125 24.84375 9.664062 24.773438 9.535156 C 24.703125 9.414062 24.609375 9.324219 24.488281 9.265625 C 24.371094 9.214844 24.238281 9.195312 24.101562 9.226562 C 23.957031 9.253906 23.816406 9.320312 23.675781 9.421875 C 23.539062 9.523438 23.398438 9.65625 23.269531 9.816406 C 23.140625 9.984375 23.027344 10.171875 22.925781 10.386719 C 22.824219 10.605469 22.753906 10.8125 22.71875 11.015625 C 22.683594 11.226562 22.667969 11.414062 22.683594 11.585938 C 22.695312 11.757812 22.742188 11.90625 22.8125 12.03125 C 22.886719 12.15625 22.980469 12.242188 23.097656 12.304688 C 23.21875 12.363281 23.34375 12.375 23.488281 12.347656 C 23.628906 12.316406 23.769531 12.25 23.90625 12.152344 C 24.050781 12.050781 24.1875 11.910156 24.316406 11.753906 C 24.449219 11.585938 24.558594 11.398438 24.660156 11.1875 Z M 24.546875 11.132812 C 24.367188 11.53125 24.148438 11.820312 23.890625 12.007812 C 23.636719 12.195312 23.394531 12.238281 23.175781 12.140625 C 22.957031 12.039062 22.832031 11.832031 22.808594 11.511719 C 22.785156 11.191406 22.859375 10.835938 23.042969 10.4375 C 23.230469 10.042969 23.449219 9.753906 23.703125 9.5625 C 23.957031 9.371094 24.199219 9.332031 24.417969 9.433594 C 24.636719 9.53125 24.761719 9.742188 24.785156 10.0625 C 24.808594 10.382812 24.734375 10.734375 24.546875 11.132812 Z M 24.492188 11.109375 C 24.667969 10.726562 24.746094 10.394531 24.722656 10.101562 C 24.699219 9.8125 24.578125 9.613281 24.378906 9.523438 C 24.171875 9.425781 23.949219 9.464844 23.707031 9.640625 C 23.472656 9.8125 23.265625 10.089844 23.089844 10.46875 C 22.921875 10.847656 22.84375 11.1875 22.867188 11.476562 C 22.890625 11.765625 23.007812 11.960938 23.210938 12.054688 C 23.417969 12.152344 23.636719 12.117188 23.878906 11.9375 C 24.117188 11.765625 24.324219 11.488281 24.492188 11.109375 Z M 24.492188 11.109375 "/>
</g>
</svg>
