<?xml version="1.0" encoding="UTF-8"?>
<svg xmlns="http://www.w3.org/2000/svg" xmlns:xlink="http://www.w3.org/1999/xlink" width="30pt" height="30pt" viewBox="0 0 30 30" version="1.1">
<defs>
<radialGradient id="radial0" gradientUnits="userSpaceOnUse" cx="25" cy="25.0003" fx="25" fy="25.0003" r="22.3363" gradientTransform="matrix(0.509211,0,0,0.512763,2.072368,1.983197)">
<stop offset="0" style="stop-color:rgb(98.823529%,81.960784%,59.215686%);stop-opacity:1;"/>
<stop offset="0.6042" style="stop-color:rgb(100%,76.470588%,45.098039%);stop-opacity:1;"/>
<stop offset="1" style="stop-color:rgb(100%,50.196078%,0.392157%);stop-opacity:1;"/>
</radialGradient>
</defs>
<g id="surface1">
<path style=" stroke:none;fill-rule:nonzero;fill:url(#radial0);" d="M 2.664062 21.859375 L 2.664062 7.746094 L 14.800781 0.6875 L 26.941406 7.746094 L 26.941406 21.859375 L 14.800781 28.917969 Z M 2.664062 21.859375 "/>
<path style=" stroke:none;fill-rule:nonzero;fill:rgb(0%,0%,0%);fill-opacity:1;" d="M 14.800781 1.367188 L 26.347656 8.082031 L 26.347656 21.523438 L 14.800781 28.238281 L 3.257812 21.523438 L 3.257812 8.082031 L 14.800781 1.367188 M 14.800781 0 L 2.074219 7.402344 L 2.074219 22.203125 L 14.800781 29.605469 L 27.53125 22.203125 L 27.53125 7.402344 Z M 14.800781 0 "/>
<path style=" stroke:none;fill-rule:nonzero;fill:rgb(0%,0%,0%);fill-opacity:1;" d="M 19.210938 21.882812 C 19.210938 21.882812 19.210938 21.320312 19.210938 20.757812 C 19.210938 20.195312 18.390625 19.445312 18.390625 19.445312 C 18.390625 19.445312 18.082031 18.128906 18.015625 17.710938 C 17.949219 17.289062 17.78125 16.300781 16.773438 16.300781 C 16.632812 16.300781 16.496094 16.300781 16.359375 16.300781 C 16.371094 16.253906 16.390625 16.207031 16.390625 16.152344 L 16.390625 16.058594 C 16.390625 15.777344 16.160156 15.550781 15.882812 15.550781 L 13.730469 15.550781 C 13.453125 15.550781 13.222656 15.777344 13.222656 16.058594 L 13.222656 16.152344 C 13.222656 16.207031 13.238281 16.253906 13.253906 16.300781 C 13.113281 16.300781 12.972656 16.300781 12.835938 16.300781 C 11.832031 16.300781 11.664062 17.289062 11.589844 17.710938 C 11.523438 18.128906 11.222656 19.445312 11.222656 19.445312 C 11.222656 19.445312 10.398438 20.195312 10.398438 20.757812 C 10.398438 21.320312 10.398438 21.882812 10.398438 21.882812 C 10.398438 21.882812 10.089844 22.027344 10.089844 22.890625 C 10.089844 23.753906 10.507812 23.859375 11.121094 23.859375 C 11.136719 23.859375 11.160156 23.859375 11.1875 23.859375 L 11.1875 24.269531 C 11.1875 24.480469 11.355469 24.65625 11.570312 24.65625 L 12.242188 24.65625 C 12.457031 24.65625 12.628906 24.480469 12.628906 24.269531 L 12.628906 23.859375 C 13.660156 23.859375 14.808594 23.859375 14.808594 23.859375 C 14.808594 23.859375 15.953125 23.859375 16.988281 23.859375 L 16.988281 24.269531 C 16.988281 24.480469 17.15625 24.65625 17.375 24.65625 L 18.046875 24.65625 C 18.261719 24.65625 18.433594 24.480469 18.433594 24.269531 L 18.433594 23.859375 C 18.457031 23.859375 18.480469 23.859375 18.496094 23.859375 C 19.109375 23.859375 19.527344 23.761719 19.527344 22.890625 C 19.527344 22.019531 19.210938 21.882812 19.210938 21.882812 Z M 17.816406 21.285156 C 17.816406 21.648438 17.527344 21.9375 17.164062 21.9375 C 16.804688 21.9375 16.515625 21.648438 16.515625 21.285156 C 16.515625 20.925781 16.804688 20.636719 17.164062 20.636719 C 17.527344 20.636719 17.816406 20.925781 17.816406 21.285156 Z M 12.679688 17.585938 C 12.757812 17.347656 12.972656 17.132812 13.300781 17.132812 L 16.304688 17.132812 C 16.636719 17.132812 16.84375 17.355469 16.925781 17.585938 C 17.011719 17.820312 17.222656 18.957031 17.222656 18.957031 L 12.386719 18.957031 C 12.386719 18.957031 12.59375 17.820312 12.679688 17.585938 Z M 15.695312 21.40625 C 15.695312 21.664062 15.484375 21.871094 15.230469 21.871094 L 14.382812 21.871094 C 14.121094 21.871094 13.914062 21.660156 13.914062 21.40625 C 13.914062 21.144531 14.128906 20.9375 14.382812 20.9375 L 15.222656 20.9375 C 15.484375 20.933594 15.695312 21.144531 15.695312 21.40625 Z M 12.449219 20.636719 C 12.804688 20.636719 13.097656 20.925781 13.097656 21.285156 C 13.097656 21.648438 12.804688 21.9375 12.449219 21.9375 C 12.085938 21.9375 11.796875 21.648438 11.796875 21.285156 C 11.796875 20.925781 12.085938 20.636719 12.449219 20.636719 Z M 18.734375 23.089844 L 10.871094 23.089844 L 10.871094 22.457031 L 18.734375 22.457031 Z M 18.734375 23.089844 "/>
<path style=" stroke:none;fill-rule:nonzero;fill:rgb(0%,0%,0%);fill-opacity:1;" d="M 8.792969 10.917969 L 11.707031 10.917969 L 11.707031 11.644531 L 8.792969 11.644531 Z M 8.792969 10.917969 "/>
<path style=" stroke:none;fill-rule:nonzero;fill:rgb(0%,0%,0%);fill-opacity:1;" d="M 18.941406 10.917969 L 20.808594 10.917969 L 20.808594 11.644531 L 18.941406 11.644531 Z M 18.941406 10.917969 "/>
<path style=" stroke:none;fill-rule:nonzero;fill:rgb(0%,0%,0%);fill-opacity:1;" d="M 18.941406 13.832031 L 20.808594 13.832031 L 20.808594 14.558594 L 18.941406 14.558594 Z M 18.941406 13.832031 "/>
<path style=" stroke:none;fill-rule:nonzero;fill:rgb(0%,0%,0%);fill-opacity:1;" d="M 12.308594 13.234375 L 14.535156 13.234375 L 14.535156 13.960938 L 12.308594 13.960938 Z M 12.308594 13.234375 "/>
<path style=" stroke:none;fill-rule:nonzero;fill:rgb(0%,0%,0%);fill-opacity:1;" d="M 10.613281 11.476562 L 10.613281 14.558594 L 9.882812 14.558594 L 9.882812 11.476562 Z M 10.613281 11.476562 "/>
<path style=" stroke:none;fill-rule:nonzero;fill:rgb(0%,0%,0%);fill-opacity:1;" d="M 20.238281 11.472656 L 20.238281 14.554688 L 19.507812 14.554688 L 19.507812 11.472656 Z M 20.238281 11.472656 "/>
<path style=" stroke:none;fill-rule:nonzero;fill:rgb(0%,0%,0%);fill-opacity:1;" d="M 11.667969 14.558594 L 12.972656 10.917969 L 13.699219 10.917969 L 12.398438 14.558594 Z M 11.667969 14.558594 "/>
<path style=" stroke:none;fill-rule:nonzero;fill:rgb(0%,0%,0%);fill-opacity:1;" d="M 15.453125 14.558594 L 17.785156 10.917969 L 18.515625 10.917969 L 16.175781 14.558594 Z M 15.453125 14.558594 "/>
<path style=" stroke:none;fill-rule:nonzero;fill:rgb(0%,0%,0%);fill-opacity:1;" d="M 18.515625 14.558594 L 16.175781 10.917969 L 15.453125 10.917969 L 17.785156 14.558594 Z M 18.515625 14.558594 "/>
<path style=" stroke:none;fill-rule:nonzero;fill:rgb(0%,0%,0%);fill-opacity:1;" d="M 15.140625 14.558594 L 13.839844 10.917969 L 13.113281 10.917969 L 14.417969 14.558594 Z M 15.140625 14.558594 "/>
<path style=" stroke:none;fill-rule:nonzero;fill:rgb(0%,0%,0%);fill-opacity:1;" d="M 11.324219 5.855469 L 12.71875 5.855469 L 12.71875 7.246094 L 11.324219 7.246094 Z M 11.324219 5.855469 "/>
<path style=" stroke:none;fill-rule:nonzero;fill:rgb(0%,0%,0%);fill-opacity:1;" d="M 12.71875 7.246094 L 14.109375 7.246094 L 14.109375 8.640625 L 12.71875 8.640625 Z M 12.71875 7.246094 "/>
<path style=" stroke:none;fill-rule:nonzero;fill:rgb(0%,0%,0%);fill-opacity:1;" d="M 14.109375 5.855469 L 15.5 5.855469 L 15.5 7.246094 L 14.109375 7.246094 Z M 14.109375 5.855469 "/>
<path style=" stroke:none;fill-rule:nonzero;fill:rgb(0%,0%,0%);fill-opacity:1;" d="M 15.496094 7.246094 L 16.886719 7.246094 L 16.886719 8.640625 L 15.496094 8.640625 Z M 15.496094 7.246094 "/>
<path style=" stroke:none;fill-rule:nonzero;fill:rgb(0%,0%,0%);fill-opacity:1;" d="M 16.886719 5.855469 L 18.28125 5.855469 L 18.28125 7.246094 L 16.886719 7.246094 Z M 16.886719 5.855469 "/>
<path style=" stroke:none;fill-rule:nonzero;fill:rgb(0%,0%,0%);fill-opacity:1;" d="M 18.28125 7.246094 L 19.671875 7.246094 L 19.671875 8.640625 L 18.28125 8.640625 Z M 18.28125 7.246094 "/>
<path style=" stroke:none;fill-rule:nonzero;fill:rgb(0%,0%,0%);fill-opacity:1;" d="M 9.933594 7.246094 L 11.324219 7.246094 L 11.324219 8.640625 L 9.933594 8.640625 Z M 9.933594 7.246094 "/>
</g>
</svg>
