<?xml version="1.0" encoding="UTF-8"?>
<svg xmlns="http://www.w3.org/2000/svg" xmlns:xlink="http://www.w3.org/1999/xlink" width="30pt" height="30pt" viewBox="0 0 30 30" version="1.1">
<defs>
<radialGradient id="radial0" gradientUnits="userSpaceOnUse" cx="25" cy="25.0003" fx="25" fy="25.0003" r="22.3363" gradientTransform="matrix(0.509211,0,0,0.512763,2.072368,1.983197)">
<stop offset="0" style="stop-color:rgb(60.784314%,100%,51.372549%);stop-opacity:1;"/>
<stop offset="0.6042" style="stop-color:rgb(31.764706%,77.647059%,20.392157%);stop-opacity:1;"/>
<stop offset="1" style="stop-color:rgb(25.098039%,65.098039%,16.078431%);stop-opacity:1;"/>
</radialGradient>
</defs>
<g id="surface1">
<path style=" stroke:none;fill-rule:nonzero;fill:url(#radial0);" d="M 2.664062 21.859375 L 2.664062 7.746094 L 14.800781 0.6875 L 26.941406 7.746094 L 26.941406 21.859375 L 14.800781 28.917969 Z M 2.664062 21.859375 "/>
<path style=" stroke:none;fill-rule:nonzero;fill:rgb(0%,0%,0%);fill-opacity:1;" d="M 14.800781 1.367188 L 26.347656 8.082031 L 26.347656 21.523438 L 14.800781 28.238281 L 3.257812 21.523438 L 3.257812 8.082031 L 14.800781 1.367188 M 14.800781 0 L 2.074219 7.402344 L 2.074219 22.203125 L 14.800781 29.605469 L 27.53125 22.203125 L 27.53125 7.402344 Z M 14.800781 0 "/>
<path style=" stroke:none;fill-rule:nonzero;fill:rgb(0%,0%,0%);fill-opacity:1;" d="M 15.082031 6.925781 L 15.082031 6.488281 C 15.753906 6.175781 15.597656 5.304688 15.597656 5.304688 L 13.84375 5.304688 C 13.84375 5.304688 13.683594 6.171875 14.359375 6.488281 L 14.359375 6.925781 L 12.160156 6.925781 L 12.160156 7.226562 C 12.160156 7.226562 12.386719 7.5 12.8125 7.5 C 13.238281 7.5 14.351562 7.546875 14.351562 7.546875 C 14.351562 7.546875 14.375 7.953125 14.375 8.25 C 14.375 8.542969 14.402344 9.023438 14.328125 9.347656 C 14.261719 9.675781 14.238281 9.933594 14.238281 10.316406 C 14.238281 10.699219 14.402344 11.566406 14.402344 12.179688 C 14.402344 12.792969 14.25 13.453125 14.25 13.453125 C 14.25 13.453125 13.6875 13.742188 13.914062 14.480469 C 13.914062 14.480469 13.8125 14.511719 13.8125 14.761719 C 13.8125 15.011719 13.992188 15.058594 13.992188 15.058594 L 13.992188 16.417969 C 13.992188 16.417969 13.820312 16.429688 13.820312 16.601562 C 13.820312 16.773438 13.820312 16.910156 13.820312 16.910156 C 13.820312 16.910156 13.640625 17.003906 13.640625 17.355469 C 13.640625 17.707031 13.875 17.863281 13.875 17.863281 L 13.554688 17.863281 C 13.554688 17.863281 13.40625 17.894531 13.40625 18.074219 C 13.40625 18.261719 13.566406 18.269531 13.566406 18.269531 C 13.566406 18.269531 12.648438 18.867188 12.648438 19.882812 C 12.648438 20.902344 13.328125 21.585938 14.71875 21.585938 C 16.105469 21.585938 16.792969 20.902344 16.792969 19.882812 C 16.792969 18.867188 15.875 18.269531 15.875 18.269531 C 15.875 18.269531 16.03125 18.261719 16.03125 18.074219 C 16.03125 17.894531 15.886719 17.863281 15.886719 17.863281 L 15.566406 17.863281 C 15.566406 17.863281 15.796875 17.699219 15.796875 17.355469 C 15.796875 17.003906 15.621094 16.910156 15.621094 16.910156 C 15.621094 16.910156 15.621094 16.773438 15.621094 16.601562 C 15.621094 16.429688 15.445312 16.417969 15.445312 16.417969 L 15.445312 15.058594 C 15.445312 15.058594 15.628906 15.003906 15.628906 14.761719 C 15.628906 14.511719 15.523438 14.480469 15.523438 14.480469 C 15.75 13.742188 15.1875 13.453125 15.1875 13.453125 C 15.1875 13.453125 15.039062 12.800781 15.039062 12.179688 C 15.039062 11.558594 15.199219 10.695312 15.199219 10.316406 C 15.199219 9.929688 15.175781 9.675781 15.109375 9.347656 C 15.046875 9.023438 15.066406 8.539062 15.066406 8.25 C 15.066406 7.957031 15.085938 7.546875 15.085938 7.546875 C 15.085938 7.546875 16.199219 7.5 16.625 7.5 C 17.054688 7.5 17.277344 7.226562 17.277344 7.226562 L 17.277344 6.925781 Z M 15.082031 6.925781 "/>
<path style="fill:none;stroke-width:1;stroke-linecap:butt;stroke-linejoin:miter;stroke:rgb(0%,0%,0%);stroke-opacity:1;stroke-miterlimit:10;" d="M 25.801736 23.789583 C 25.801736 23.789583 30.4 20.616319 30.4 17.871875 C 30.4 15.114236 27.741319 14.850347 24.548264 15.582639 C 21.361806 16.301736 18.320486 18.577778 18.320486 24.172222 C 18.320486 29.760069 24.482292 29.608333 25.432292 29.608333 C 26.382292 29.608333 26.382292 29.608333 26.382292 29.608333 C 26.382292 29.608333 28.895833 28.546181 29.56875 27.055208 C 30.248264 25.577431 32.906944 22.357986 35.460069 23.954514 C 38.006597 25.537847 39.194097 29.146528 37.742708 32.108681 C 36.304514 35.070833 34.008681 38.527778 23.301389 38.527778 " transform="matrix(0.592105,0,0,0.592105,0,0)"/>
<path style=" stroke:none;fill-rule:nonzero;fill:rgb(0%,0%,0%);fill-opacity:1;" d="M 13.875 22.5 L 13.558594 22.5 C 13.46875 22.402344 13.339844 22.328125 13.191406 22.328125 C 13.042969 22.328125 12.921875 22.402344 12.824219 22.5 L 11.988281 22.5 C 11.917969 22.46875 11.851562 22.453125 11.765625 22.453125 C 11.683594 22.453125 11.605469 22.46875 11.542969 22.5 L 11.113281 22.5 C 11.042969 22.46875 10.972656 22.453125 10.890625 22.453125 C 10.804688 22.453125 10.726562 22.46875 10.664062 22.5 L 10.136719 22.5 C 10.066406 22.46875 9.996094 22.453125 9.910156 22.453125 C 9.828125 22.453125 9.753906 22.46875 9.6875 22.5 L 7.566406 22.5 C 7.402344 22.5 6.902344 22.65625 6.902344 22.820312 L 6.902344 22.835938 C 6.902344 23 7.402344 23.140625 7.566406 23.140625 L 9.6875 23.140625 C 9.757812 23.167969 9.828125 23.1875 9.910156 23.1875 C 9.996094 23.1875 10.074219 23.167969 10.136719 23.140625 L 10.660156 23.140625 C 10.726562 23.167969 10.800781 23.1875 10.882812 23.1875 C 10.96875 23.1875 11.042969 23.167969 11.109375 23.140625 L 11.535156 23.140625 C 11.605469 23.167969 11.675781 23.1875 11.757812 23.1875 C 11.84375 23.1875 11.917969 23.167969 11.984375 23.140625 L 12.816406 23.140625 C 12.90625 23.242188 13.039062 23.308594 13.1875 23.308594 C 13.332031 23.308594 13.457031 23.242188 13.554688 23.140625 L 13.863281 23.140625 L 13.863281 22.5 Z M 13.875 22.5 "/>
</g>
</svg>
