<?xml version="1.0" encoding="UTF-8"?>
<svg xmlns="http://www.w3.org/2000/svg" xmlns:xlink="http://www.w3.org/1999/xlink" width="30pt" height="30pt" viewBox="0 0 30 30" version="1.1">
<defs>
<radialGradient id="radial0" gradientUnits="userSpaceOnUse" cx="25" cy="25.0003" fx="25" fy="25.0003" r="22.3363" gradientTransform="matrix(0.509211,0,0,0.512763,2.072368,1.983197)">
<stop offset="0" style="stop-color:rgb(60.784314%,100%,51.372549%);stop-opacity:1;"/>
<stop offset="0.6042" style="stop-color:rgb(31.764706%,77.647059%,20.392157%);stop-opacity:1;"/>
<stop offset="1" style="stop-color:rgb(25.098039%,65.098039%,16.078431%);stop-opacity:1;"/>
</radialGradient>
</defs>
<g id="surface1">
<path style=" stroke:none;fill-rule:nonzero;fill:url(#radial0);" d="M 2.664062 21.859375 L 2.664062 7.746094 L 14.800781 0.6875 L 26.941406 7.746094 L 26.941406 21.859375 L 14.800781 28.917969 Z M 2.664062 21.859375 "/>
<path style=" stroke:none;fill-rule:nonzero;fill:rgb(0%,0%,0%);fill-opacity:1;" d="M 14.800781 1.367188 L 26.347656 8.082031 L 26.347656 21.523438 L 14.800781 28.238281 L 3.257812 21.523438 L 3.257812 8.082031 L 14.800781 1.367188 M 14.800781 0 L 2.074219 7.402344 L 2.074219 22.203125 L 14.800781 29.605469 L 27.53125 22.203125 L 27.53125 7.402344 Z M 14.800781 0 "/>
<path style=" stroke:none;fill-rule:nonzero;fill:rgb(0%,0%,0%);fill-opacity:1;" d="M 12.03125 8.375 C 12.03125 9.074219 11.46875 9.640625 10.769531 9.640625 C 10.074219 9.640625 9.511719 9.074219 9.511719 8.375 C 9.511719 7.683594 10.074219 7.117188 10.769531 7.117188 C 11.46875 7.117188 12.03125 7.683594 12.03125 8.375 Z M 12.03125 8.375 "/>
<path style=" stroke:none;fill-rule:nonzero;fill:rgb(0%,0%,0%);fill-opacity:1;" d="M 20.890625 8.375 C 20.890625 9.074219 20.328125 9.640625 19.628906 9.640625 C 18.929688 9.640625 18.367188 9.074219 18.367188 8.375 C 18.367188 7.683594 18.929688 7.117188 19.628906 7.117188 C 20.328125 7.117188 20.890625 7.683594 20.890625 8.375 Z M 20.890625 8.375 "/>
<path style=" stroke:none;fill-rule:nonzero;fill:rgb(0%,0%,0%);fill-opacity:1;" d="M 12.625 10.769531 C 12.472656 10.402344 12.269531 9.996094 11.851562 9.996094 C 11.425781 9.996094 10.769531 9.996094 10.769531 9.996094 C 10.769531 9.996094 10.109375 9.996094 9.691406 9.996094 C 9.269531 9.996094 9.066406 10.402344 8.917969 10.769531 C 8.769531 11.136719 8.164062 12.703125 8.164062 12.703125 C 8.164062 12.703125 7.988281 12.351562 7.652344 11.917969 C 7.316406 11.480469 7.035156 11.546875 6.78125 11.675781 C 6.527344 11.808594 6.472656 12.074219 6.636719 12.371094 C 6.804688 12.667969 7.460938 13.6875 7.691406 14.039062 C 7.921875 14.386719 8.582031 14.523438 8.734375 14.171875 C 8.890625 13.808594 9.414062 12.730469 9.414062 12.730469 C 9.414062 12.730469 8.949219 20.5 8.902344 21.140625 C 8.847656 21.777344 9.523438 21.882812 9.523438 21.882812 C 9.523438 21.882812 10.117188 21.949219 10.230469 21.242188 C 10.351562 20.539062 10.769531 16.738281 10.769531 16.738281 C 10.769531 16.738281 11.199219 20.539062 11.308594 21.242188 C 11.425781 21.949219 12.015625 21.882812 12.015625 21.882812 C 12.015625 21.882812 12.695312 21.785156 12.640625 21.140625 C 12.589844 20.5 12.128906 12.730469 12.128906 12.730469 C 12.128906 12.730469 12.871094 15.089844 13.027344 15.453125 C 13.179688 15.816406 13.984375 16.082031 13.992188 15.199219 "/>
<path style=" stroke:none;fill-rule:nonzero;fill:rgb(0%,0%,0%);fill-opacity:1;" d="M 12.730469 16.226562 C 12.730469 16.226562 13.34375 16.3125 13.914062 16.3125 C 14.480469 16.3125 15.15625 16.226562 15.15625 16.226562 L 14.773438 18.511719 C 14.773438 18.511719 14.492188 18.78125 13.992188 18.78125 C 13.488281 18.78125 13.179688 18.527344 13.179688 18.527344 Z M 12.730469 16.226562 "/>
<path style=" stroke:none;fill-rule:nonzero;fill:rgb(0%,0%,0%);fill-opacity:1;" d="M 6.671875 10.085938 L 6.925781 10.085938 L 6.925781 21.882812 L 6.671875 21.882812 Z M 6.671875 10.085938 "/>
<path style=" stroke:none;fill-rule:nonzero;fill:rgb(0%,0%,0%);fill-opacity:1;" d="M 5.546875 9.667969 L 8.054688 9.667969 L 8.054688 9.945312 L 5.546875 9.945312 Z M 5.546875 9.667969 "/>
<path style=" stroke:none;fill-rule:nonzero;fill:rgb(0%,0%,0%);fill-opacity:1;" d="M 5.546875 9.246094 L 8.054688 9.246094 L 8.054688 9.523438 L 5.546875 9.523438 Z M 5.546875 9.246094 "/>
<path style=" stroke:none;fill-rule:nonzero;fill:rgb(0%,0%,0%);fill-opacity:1;" d="M 7.910156 8.804688 L 7.757812 9.246094 L 8.054688 9.246094 Z M 7.910156 8.804688 "/>
<path style=" stroke:none;fill-rule:nonzero;fill:rgb(0%,0%,0%);fill-opacity:1;" d="M 7.589844 8.804688 L 7.445312 9.246094 L 7.746094 9.246094 Z M 7.589844 8.804688 "/>
<path style=" stroke:none;fill-rule:nonzero;fill:rgb(0%,0%,0%);fill-opacity:1;" d="M 7.277344 8.804688 L 7.125 9.246094 L 7.433594 9.246094 Z M 7.277344 8.804688 "/>
<path style=" stroke:none;fill-rule:nonzero;fill:rgb(0%,0%,0%);fill-opacity:1;" d="M 6.960938 8.804688 L 6.808594 9.246094 L 7.113281 9.246094 Z M 6.960938 8.804688 "/>
<path style=" stroke:none;fill-rule:nonzero;fill:rgb(0%,0%,0%);fill-opacity:1;" d="M 6.640625 8.804688 L 6.496094 9.246094 L 6.796875 9.246094 Z M 6.640625 8.804688 "/>
<path style=" stroke:none;fill-rule:nonzero;fill:rgb(0%,0%,0%);fill-opacity:1;" d="M 6.328125 8.804688 L 6.183594 9.246094 L 6.484375 9.246094 Z M 6.328125 8.804688 "/>
<path style=" stroke:none;fill-rule:nonzero;fill:rgb(0%,0%,0%);fill-opacity:1;" d="M 6.015625 8.804688 L 5.863281 9.246094 L 6.164062 9.246094 Z M 6.015625 8.804688 "/>
<path style=" stroke:none;fill-rule:nonzero;fill:rgb(0%,0%,0%);fill-opacity:1;" d="M 5.703125 8.804688 L 5.546875 9.246094 L 5.851562 9.246094 Z M 5.703125 8.804688 "/>
<path style=" stroke:none;fill-rule:nonzero;fill:rgb(0%,0%,0%);fill-opacity:1;" d="M 21.445312 10.769531 C 21.296875 10.402344 21.089844 9.996094 20.667969 9.996094 C 20.25 9.996094 19.59375 9.996094 19.59375 9.996094 C 19.59375 9.996094 19.585938 9.996094 19.585938 9.996094 C 19.585938 9.996094 19.582031 9.996094 19.582031 9.996094 C 19.582031 9.996094 18.921875 9.996094 18.503906 9.996094 C 18.074219 9.996094 17.875 10.402344 17.726562 10.769531 L 16.359375 15.191406 C 16.367188 16.082031 17.167969 15.808594 17.324219 15.445312 C 17.476562 15.085938 18.226562 12.726562 18.226562 12.726562 C 18.226562 12.726562 17.761719 20.492188 17.710938 21.132812 C 17.65625 21.773438 18.335938 21.878906 18.335938 21.878906 C 18.335938 21.878906 18.929688 21.941406 19.042969 21.242188 C 19.160156 20.535156 19.582031 16.734375 19.582031 16.734375 C 19.582031 16.734375 19.582031 16.757812 19.585938 16.792969 C 19.59375 16.757812 19.59375 16.734375 19.59375 16.734375 C 19.59375 16.734375 20.019531 20.535156 20.128906 21.242188 C 20.25 21.941406 20.835938 21.878906 20.835938 21.878906 C 20.835938 21.878906 21.519531 21.777344 21.464844 21.132812 C 21.410156 20.492188 20.945312 12.726562 20.945312 12.726562 C 20.945312 12.726562 21.695312 15.085938 21.847656 15.445312 C 22.003906 15.808594 22.808594 16.074219 22.8125 15.191406 Z M 21.445312 10.769531 "/>
<path style=" stroke:none;fill-rule:nonzero;fill:rgb(0%,0%,0%);fill-opacity:1;" d="M 15.894531 21.882812 L 13.5 21.882812 L 13.878906 21.308594 C 13.917969 21.242188 13.992188 21.203125 14.074219 21.203125 L 16.027344 21.203125 C 16.207031 21.203125 16.316406 21.398438 16.226562 21.550781 L 16.09375 21.773438 C 16.046875 21.839844 15.972656 21.882812 15.894531 21.882812 Z M 15.894531 21.882812 "/>
<path style=" stroke:none;fill-rule:nonzero;fill:rgb(0%,0%,0%);fill-opacity:1;" d="M 16.429688 15.863281 L 16.667969 15.929688 L 15.140625 21.410156 L 14.898438 21.34375 Z M 16.429688 15.863281 "/>
<path style=" stroke:none;fill-rule:nonzero;fill:rgb(0%,0%,0%);fill-opacity:1;" d="M 21.742188 19.078125 C 21.742188 19.078125 22.019531 18.78125 22.3125 18.691406 L 22.3125 18.25 L 23.089844 18.25 L 23.089844 18.660156 C 23.089844 18.660156 23.984375 19.136719 24.035156 19.773438 C 24.082031 20.402344 24.035156 21.546875 24.035156 21.546875 C 24.035156 21.546875 23.5625 21.808594 23.066406 21.808594 C 22.578125 21.808594 21.949219 21.410156 21.949219 21.410156 Z M 21.742188 19.078125 "/>
<path style=" stroke:none;fill-rule:nonzero;fill:rgb(0%,0%,0%);fill-opacity:1;" d="M 21.464844 16.304688 L 21.464844 16.734375 C 21.464844 16.734375 22.261719 17.207031 22.476562 18.101562 L 22.8125 18.101562 C 22.8125 18.09375 22.890625 17.136719 21.464844 16.304688 Z M 21.464844 16.304688 "/>
</g>
</svg>
