<?xml version="1.0" encoding="UTF-8"?>
<svg xmlns="http://www.w3.org/2000/svg" xmlns:xlink="http://www.w3.org/1999/xlink" width="30pt" height="30pt" viewBox="0 0 30 30" version="1.1">
<defs>
<radialGradient id="radial0" gradientUnits="userSpaceOnUse" cx="25" cy="25.0003" fx="25" fy="25.0003" r="22.3363" gradientTransform="matrix(0.509211,0,0,0.512763,2.072368,1.983197)">
<stop offset="0" style="stop-color:rgb(60.784314%,100%,51.372549%);stop-opacity:1;"/>
<stop offset="0.6042" style="stop-color:rgb(31.764706%,77.647059%,20.392157%);stop-opacity:1;"/>
<stop offset="1" style="stop-color:rgb(25.098039%,65.098039%,16.078431%);stop-opacity:1;"/>
</radialGradient>
</defs>
<g id="surface1">
<path style=" stroke:none;fill-rule:nonzero;fill:url(#radial0);" d="M 2.664062 21.859375 L 2.664062 7.746094 L 14.800781 0.6875 L 26.941406 7.746094 L 26.941406 21.859375 L 14.800781 28.917969 Z M 2.664062 21.859375 "/>
<path style=" stroke:none;fill-rule:nonzero;fill:rgb(0%,0%,0%);fill-opacity:1;" d="M 14.800781 1.367188 L 26.347656 8.082031 L 26.347656 21.523438 L 14.800781 28.238281 L 3.257812 21.523438 L 3.257812 8.082031 L 14.800781 1.367188 M 14.800781 0 L 2.074219 7.402344 L 2.074219 22.203125 L 14.800781 29.605469 L 27.53125 22.203125 L 27.53125 7.402344 Z M 14.800781 0 "/>
<path style=" stroke:none;fill-rule:nonzero;fill:rgb(0.392157%,0%,0.784314%);fill-opacity:1;" d="M 23.332031 9.710938 L 23.585938 10.140625 C 23.691406 10.328125 23.625 10.5625 23.441406 10.671875 L 7.589844 19.765625 C 7.410156 19.871094 7.171875 19.804688 7.0625 19.621094 L 6.816406 19.1875 C 6.707031 19.007812 6.773438 18.769531 6.957031 18.660156 L 22.808594 9.566406 C 22.992188 9.464844 23.230469 9.523438 23.332031 9.710938 Z M 23.332031 9.710938 "/>
<path style=" stroke:none;fill-rule:nonzero;fill:rgb(0.392157%,0%,0.784314%);fill-opacity:1;" d="M 12.605469 20.734375 L 12.128906 21.007812 C 11.851562 21.167969 11.492188 21.074219 11.332031 20.792969 L 7.878906 14.78125 C 7.722656 14.5 7.816406 14.148438 8.09375 13.984375 L 8.574219 13.710938 C 8.851562 13.554688 9.207031 13.644531 9.367188 13.925781 L 12.816406 19.941406 C 12.980469 20.21875 12.882812 20.578125 12.605469 20.734375 Z M 12.605469 20.734375 "/>
<path style=" stroke:none;fill-rule:nonzero;fill:rgb(0.392157%,0%,0.784314%);fill-opacity:1;" d="M 10.726562 21.808594 L 10.25 22.082031 C 9.972656 22.238281 9.613281 22.144531 9.457031 21.863281 L 6.007812 15.851562 C 5.84375 15.574219 5.941406 15.21875 6.21875 15.058594 L 6.695312 14.785156 C 6.972656 14.625 7.332031 14.71875 7.488281 15 L 10.945312 21.011719 C 11.109375 21.289062 11.003906 21.652344 10.726562 21.808594 Z M 10.726562 21.808594 "/>
<path style=" stroke:none;fill-rule:nonzero;fill:rgb(0.392157%,0%,0.784314%);fill-opacity:1;" d="M 7.65625 20.273438 L 7.332031 20.460938 C 7.027344 20.636719 6.636719 20.535156 6.464844 20.226562 L 5.914062 19.261719 C 5.742188 18.957031 5.84375 18.570312 6.152344 18.394531 L 6.476562 18.207031 C 6.78125 18.035156 7.171875 18.136719 7.34375 18.445312 L 7.890625 19.410156 C 8.0625 19.710938 7.957031 20.101562 7.65625 20.273438 Z M 7.65625 20.273438 "/>
<path style=" stroke:none;fill-rule:nonzero;fill:rgb(0.392157%,0%,0.784314%);fill-opacity:1;" d="M 17 8.871094 L 17.476562 8.597656 C 17.753906 8.4375 18.113281 8.53125 18.273438 8.8125 L 21.726562 14.824219 C 21.882812 15.101562 21.789062 15.457031 21.511719 15.621094 L 21.03125 15.894531 C 20.753906 16.050781 20.398438 15.960938 20.238281 15.675781 L 16.789062 9.664062 C 16.625 9.386719 16.722656 9.027344 17 8.871094 Z M 17 8.871094 "/>
<path style=" stroke:none;fill-rule:nonzero;fill:rgb(0.392157%,0%,0.784314%);fill-opacity:1;" d="M 18.878906 7.796875 L 19.355469 7.523438 C 19.632812 7.367188 19.992188 7.460938 20.148438 7.742188 L 23.597656 13.753906 C 23.761719 14.03125 23.664062 14.386719 23.386719 14.546875 L 22.910156 14.820312 C 22.632812 14.980469 22.273438 14.886719 22.117188 14.605469 L 18.660156 8.59375 C 18.496094 8.316406 18.601562 7.953125 18.878906 7.796875 Z M 18.878906 7.796875 "/>
<path style=" stroke:none;fill-rule:nonzero;fill:rgb(0.392157%,0%,0.784314%);fill-opacity:1;" d="M 21.949219 9.332031 L 22.273438 9.144531 C 22.578125 8.96875 22.96875 9.070312 23.140625 9.378906 L 23.691406 10.34375 C 23.863281 10.648438 23.761719 11.035156 23.453125 11.210938 L 23.128906 11.398438 C 22.824219 11.570312 22.433594 11.46875 22.261719 11.160156 L 21.714844 10.195312 C 21.539062 9.894531 21.648438 9.503906 21.949219 9.332031 Z M 21.949219 9.332031 "/>
</g>
</svg>
