<?xml version="1.0" encoding="UTF-8"?>
<svg xmlns="http://www.w3.org/2000/svg" xmlns:xlink="http://www.w3.org/1999/xlink" width="30pt" height="30pt" viewBox="0 0 30 30" version="1.1">
<defs>
<radialGradient id="radial0" gradientUnits="userSpaceOnUse" cx="25" cy="25.0003" fx="25" fy="25.0003" r="22.3363" gradientTransform="matrix(0.509211,0,0,0.512763,2.072368,1.983197)">
<stop offset="0" style="stop-color:rgb(60.784314%,100%,51.372549%);stop-opacity:1;"/>
<stop offset="0.6042" style="stop-color:rgb(31.764706%,77.647059%,20.392157%);stop-opacity:1;"/>
<stop offset="1" style="stop-color:rgb(25.098039%,65.098039%,16.078431%);stop-opacity:1;"/>
</radialGradient>
</defs>
<g id="surface1">
<path style=" stroke:none;fill-rule:nonzero;fill:url(#radial0);" d="M 2.664062 21.859375 L 2.664062 7.746094 L 14.800781 0.6875 L 26.941406 7.746094 L 26.941406 21.859375 L 14.800781 28.917969 Z M 2.664062 21.859375 "/>
<path style=" stroke:none;fill-rule:nonzero;fill:rgb(0%,0%,0%);fill-opacity:1;" d="M 14.800781 1.367188 L 26.347656 8.082031 L 26.347656 21.523438 L 14.800781 28.238281 L 3.257812 21.523438 L 3.257812 8.082031 L 14.800781 1.367188 M 14.800781 0 L 2.074219 7.402344 L 2.074219 22.203125 L 14.800781 29.605469 L 27.53125 22.203125 L 27.53125 7.402344 Z M 14.800781 0 "/>
<path style=" stroke:none;fill-rule:nonzero;fill:rgb(0%,0%,0%);fill-opacity:1;" d="M 12.410156 9.308594 C 11.234375 8.128906 9.3125 8.128906 8.132812 9.308594 C 6.957031 10.484375 6.957031 12.40625 8.132812 13.585938 C 8.390625 13.839844 8.679688 14.039062 8.992188 14.1875 L 13.015625 10.164062 C 12.867188 9.851562 12.667969 9.5625 12.410156 9.308594 Z M 12.410156 9.308594 "/>
<path style=" stroke:none;fill-rule:nonzero;fill:rgb(0%,0%,0%);fill-opacity:1;" d="M 13.457031 11.15625 L 9.984375 14.628906 L 10.757812 15.28125 L 14.109375 11.929688 Z M 13.457031 11.15625 "/>
<path style=" stroke:none;fill-rule:nonzero;fill:rgb(0%,0%,0%);fill-opacity:1;" d="M 21.597656 18.496094 C 21.519531 18.734375 21.378906 18.957031 21.191406 19.144531 C 20.511719 19.824219 19.402344 19.835938 18.710938 19.167969 L 19.507812 18.367188 L 14.757812 12.703125 L 11.53125 15.929688 L 17.195312 20.679688 L 18 19.875 C 19.089844 20.9375 20.832031 20.925781 21.90625 19.851562 C 22.09375 19.671875 22.234375 19.464844 22.351562 19.242188 Z M 21.597656 18.496094 "/>
<path style=" stroke:none;fill-rule:nonzero;fill:rgb(0%,0%,0%);fill-opacity:1;" d="M 22.351562 15.140625 C 22.351562 14.613281 21.597656 14.1875 20.667969 14.1875 C 19.742188 14.1875 18.988281 14.613281 18.988281 15.140625 C 18.988281 15.667969 19.742188 16.09375 20.667969 16.09375 C 21.597656 16.09375 22.351562 15.667969 22.351562 15.140625 Z M 22.351562 15.140625 "/>
<path style=" stroke:none;fill-rule:nonzero;fill:rgb(0%,0%,0%);fill-opacity:1;" d="M 21.890625 7.203125 L 22.351562 7.203125 L 22.351562 15.144531 L 21.890625 15.144531 Z M 21.890625 7.203125 "/>
<path style=" stroke:none;fill-rule:nonzero;fill:rgb(0%,0%,0%);fill-opacity:1;" d="M 23.289062 10.398438 C 23.289062 10.398438 24.113281 8.128906 22.039062 7.203125 C 22.039062 7.203125 22.324219 8.210938 22.515625 8.796875 C 22.710938 9.386719 23.351562 9.433594 23.289062 10.398438 Z M 23.289062 10.398438 "/>
<path style=" stroke:none;fill-rule:nonzero;fill:rgb(0%,0%,0%);fill-opacity:1;" d="M 14.898438 9.222656 C 14.410156 9.003906 13.894531 9.105469 13.746094 9.441406 C 13.597656 9.78125 13.871094 10.226562 14.359375 10.441406 C 14.84375 10.660156 15.363281 10.558594 15.511719 10.21875 C 15.664062 9.882812 15.382812 9.433594 14.898438 9.222656 Z M 14.898438 9.222656 "/>
<path style=" stroke:none;fill-rule:nonzero;fill:rgb(0%,0%,0%);fill-opacity:1;" d="M 17.507812 5.035156 L 17.75 5.140625 L 15.511719 10.214844 L 15.269531 10.109375 Z M 17.507812 5.035156 "/>
<path style=" stroke:none;fill-rule:nonzero;fill:rgb(0%,0%,0%);fill-opacity:1;" d="M 16.871094 11.382812 C 16.382812 11.167969 15.867188 11.269531 15.71875 11.605469 C 15.570312 11.945312 15.84375 12.394531 16.332031 12.609375 C 16.820312 12.824219 17.335938 12.726562 17.484375 12.386719 C 17.632812 12.046875 17.359375 11.597656 16.871094 11.382812 Z M 16.871094 11.382812 "/>
<path style=" stroke:none;fill-rule:nonzero;fill:rgb(0%,0%,0%);fill-opacity:1;" d="M 19.480469 7.203125 L 19.722656 7.3125 L 17.480469 12.390625 L 17.238281 12.28125 Z M 19.480469 7.203125 "/>
<path style=" stroke:none;fill-rule:nonzero;fill:rgb(0%,0%,0%);fill-opacity:1;" d="M 8.296875 15.5 C 8.015625 15.246094 7.425781 15.441406 6.976562 15.9375 C 6.53125 16.433594 6.394531 17.039062 6.675781 17.292969 C 6.957031 17.546875 7.546875 17.351562 7.996094 16.855469 C 8.441406 16.359375 8.578125 15.753906 8.296875 15.5 Z M 8.296875 15.5 "/>
<path style=" stroke:none;fill-rule:nonzero;fill:rgb(0%,0%,0%);fill-opacity:1;" d="M 11.128906 20.867188 L 10.910156 21.113281 L 6.675781 17.292969 L 6.894531 17.046875 Z M 11.128906 20.867188 "/>
<path style=" stroke:none;fill-rule:nonzero;fill:rgb(0%,0%,0%);fill-opacity:1;" d="M 8.757812 20.078125 C 8.757812 20.078125 9.574219 21.609375 11.058594 20.945312 C 11.058594 20.945312 10.386719 20.617188 9.976562 20.4375 C 9.566406 20.257812 9.242188 20.578125 8.757812 20.078125 Z M 8.757812 20.078125 "/>
<path style=" stroke:none;fill-rule:nonzero;fill:rgb(0%,0%,0%);fill-opacity:1;" d="M 19.542969 7.710938 L 17.367188 5.660156 L 17.742188 5.136719 L 19.765625 7.203125 Z M 19.542969 7.710938 "/>
</g>
</svg>
