<?xml version="1.0" encoding="UTF-8"?>
<svg xmlns="http://www.w3.org/2000/svg" xmlns:xlink="http://www.w3.org/1999/xlink" width="30pt" height="30pt" viewBox="0 0 30 30" version="1.1">
<defs>
<radialGradient id="radial0" gradientUnits="userSpaceOnUse" cx="25" cy="25.0003" fx="25" fy="25.0003" r="22.3363" gradientTransform="matrix(0.509211,0,0,0.512763,2.072368,1.983197)">
<stop offset="0" style="stop-color:rgb(60.784314%,100%,51.372549%);stop-opacity:1;"/>
<stop offset="0.6042" style="stop-color:rgb(31.764706%,77.647059%,20.392157%);stop-opacity:1;"/>
<stop offset="1" style="stop-color:rgb(25.098039%,65.098039%,16.078431%);stop-opacity:1;"/>
</radialGradient>
</defs>
<g id="surface1">
<path style=" stroke:none;fill-rule:nonzero;fill:url(#radial0);" d="M 2.664062 21.859375 L 2.664062 7.746094 L 14.800781 0.6875 L 26.941406 7.746094 L 26.941406 21.859375 L 14.800781 28.917969 Z M 2.664062 21.859375 "/>
<path style=" stroke:none;fill-rule:nonzero;fill:rgb(0%,0%,0%);fill-opacity:1;" d="M 14.800781 1.367188 L 26.347656 8.082031 L 26.347656 21.523438 L 14.800781 28.238281 L 3.257812 21.523438 L 3.257812 8.082031 L 14.800781 1.367188 M 14.800781 0 L 2.074219 7.402344 L 2.074219 22.203125 L 14.800781 29.605469 L 27.53125 22.203125 L 27.53125 7.402344 Z M 14.800781 0 "/>
<path style="fill:none;stroke-width:1.5;stroke-linecap:butt;stroke-linejoin:miter;stroke:rgb(0%,0%,0%);stroke-opacity:1;stroke-miterlimit:10;" d="M 31.607292 16.519444 L 28.506597 16.519444 C 27.767708 16.519444 27.180556 15.919097 27.180556 15.186806 C 27.180556 14.454514 27.780903 13.860764 28.506597 13.860764 L 31.607292 13.860764 C 32.352778 13.860764 32.939931 14.461111 32.939931 15.186806 C 32.939931 15.919097 32.339583 16.519444 31.607292 16.519444 Z M 31.607292 16.519444 " transform="matrix(0.592105,0,0,0.592105,0,0)"/>
<path style="fill:none;stroke-width:1.5;stroke-linecap:butt;stroke-linejoin:miter;stroke:rgb(0%,0%,0%);stroke-opacity:1;stroke-miterlimit:10;" d="M 25.498264 22.701042 L 25.570833 21.579514 L 26.3625 17.410069 C 26.3625 16.921875 26.758333 16.519444 27.253125 16.519444 L 32.860764 16.519444 C 33.355556 16.519444 33.751389 16.921875 33.751389 17.410069 L 34.536458 21.579514 L 35.334722 33.916319 C 35.334722 34.404514 34.925694 34.813542 34.4375 34.813542 L 25.656597 34.813542 " transform="matrix(0.592105,0,0,0.592105,0,0)"/>
<path style=" stroke:none;fill-rule:nonzero;fill:rgb(0%,0%,0%);fill-opacity:1;" d="M 13.28125 12.925781 C 13.28125 12.925781 12.738281 13.46875 12.746094 14.109375 C 12.746094 14.109375 13.203125 13.777344 13.457031 13.753906 C 13.710938 13.738281 14.074219 13.855469 14.207031 13.832031 C 14.335938 13.808594 14.550781 13.75 14.550781 13.75 C 14.550781 13.75 14.3125 14.3125 13.972656 14.371094 C 13.640625 14.429688 13.355469 14.371094 13.355469 14.371094 C 13.355469 14.371094 13.652344 14.417969 13.789062 14.546875 C 13.953125 14.703125 14.324219 15.011719 14.617188 15.109375 C 14.617188 15.109375 14.285156 15.378906 13.808594 15.269531 C 13.328125 15.164062 12.667969 14.359375 12.667969 14.359375 C 12.667969 14.359375 13.300781 15.320312 12.894531 16.257812 C 12.894531 16.257812 12.042969 15.96875 12.273438 14.464844 C 12.273438 14.464844 11.851562 15.882812 10.425781 15.222656 C 10.425781 15.222656 10.75 15.085938 10.847656 14.960938 C 10.9375 14.835938 11.171875 14.492188 11.425781 14.363281 C 11.675781 14.234375 12.128906 14.238281 12.128906 14.238281 C 12.128906 14.238281 11.722656 14.117188 11.425781 14.085938 C 11.132812 14.054688 10.683594 13.855469 10.648438 13.148438 C 10.648438 13.148438 10.804688 13.429688 11 13.5 C 11.199219 13.574219 11.667969 13.476562 11.855469 13.613281 C 12.039062 13.75 12.285156 14.042969 12.285156 14.042969 C 12.285156 14.042969 12.523438 13.351562 13.027344 12.867188 C 13.015625 12.871094 13.191406 12.855469 13.28125 12.925781 Z M 13.28125 12.925781 "/>
<path style=" stroke:none;fill-rule:nonzero;fill:rgb(0%,0%,0%);fill-opacity:1;" d="M 14.855469 14.082031 C 14.855469 14.082031 16.699219 14.550781 16.304688 16.914062 C 15.917969 19.277344 15.070312 20.039062 12.769531 20.472656 C 10.46875 20.914062 8.695312 18.390625 8.683594 16.84375 C 8.671875 15.265625 9.34375 14.160156 10.652344 13.9375 C 10.652344 13.9375 10.695312 14.28125 10.992188 14.335938 C 10.992188 14.335938 10.839844 14.847656 9.984375 15.085938 C 9.984375 15.085938 10.496094 16.3125 12.0625 15.597656 C 12.0625 15.597656 12.191406 16.566406 13.085938 16.824219 C 13.085938 16.824219 13.601562 16.28125 13.53125 15.484375 C 13.53125 15.484375 14.714844 16.3125 15.140625 14.84375 C 15.140625 14.84375 14.914062 14.832031 14.746094 14.734375 C 14.570312 14.628906 14.304688 14.527344 14.304688 14.527344 C 14.304688 14.527344 14.773438 14.414062 14.855469 14.082031 Z M 14.855469 14.082031 "/>
</g>
</svg>
