<?xml version="1.0" encoding="UTF-8"?>
<svg xmlns="http://www.w3.org/2000/svg" xmlns:xlink="http://www.w3.org/1999/xlink" width="30pt" height="30pt" viewBox="0 0 30 30" version="1.1">
<defs>
<radialGradient id="radial0" gradientUnits="userSpaceOnUse" cx="25" cy="25.0003" fx="25" fy="25.0003" r="22.3363" gradientTransform="matrix(0.509211,0,0,0.512763,2.072368,1.983197)">
<stop offset="0" style="stop-color:rgb(60.784314%,100%,51.372549%);stop-opacity:1;"/>
<stop offset="0.6042" style="stop-color:rgb(31.764706%,77.647059%,20.392157%);stop-opacity:1;"/>
<stop offset="1" style="stop-color:rgb(25.098039%,65.098039%,16.078431%);stop-opacity:1;"/>
</radialGradient>
</defs>
<g id="surface1">
<path style=" stroke:none;fill-rule:nonzero;fill:url(#radial0);" d="M 2.664062 21.859375 L 2.664062 7.746094 L 14.800781 0.6875 L 26.941406 7.746094 L 26.941406 21.859375 L 14.800781 28.917969 Z M 2.664062 21.859375 "/>
<path style=" stroke:none;fill-rule:nonzero;fill:rgb(0%,0%,0%);fill-opacity:1;" d="M 14.800781 1.367188 L 26.347656 8.082031 L 26.347656 21.523438 L 14.800781 28.238281 L 3.257812 21.523438 L 3.257812 8.082031 L 14.800781 1.367188 M 14.800781 0 L 2.074219 7.402344 L 2.074219 22.203125 L 14.800781 29.605469 L 27.53125 22.203125 L 27.53125 7.402344 Z M 14.800781 0 "/>
<path style=" stroke:none;fill-rule:nonzero;fill:rgb(0%,0%,0%);fill-opacity:1;" d="M 18.3125 8.242188 C 18.308594 8.25 18.304688 8.25 18.296875 8.25 C 17.804688 8.503906 17.101562 9.578125 17.101562 12.601562 C 17.101562 14.21875 17.785156 15.199219 17.976562 15.742188 C 18.304688 16.691406 17.667969 19.058594 17.542969 20.167969 C 17.5 20.535156 17.820312 20.835938 18.160156 20.835938 C 18.214844 20.835938 18.269531 20.824219 18.3125 20.8125 C 18.574219 20.734375 18.777344 20.480469 18.777344 20.167969 L 18.777344 8.59375 C 18.769531 8.328125 18.527344 8.148438 18.3125 8.242188 Z M 18.3125 8.242188 "/>
<path style=" stroke:none;fill-rule:nonzero;fill:rgb(0%,0%,0%);fill-opacity:1;" d="M 12.925781 8.25 L 12.894531 12.183594 L 12.570312 12.183594 L 12.496094 8.25 L 12.332031 8.25 L 12.257812 12.183594 L 11.929688 12.183594 L 11.863281 8.25 L 11.707031 8.25 L 11.621094 12.183594 L 11.296875 12.183594 L 11.261719 8.25 L 11.109375 8.25 C 10.96875 9.160156 10.828125 10.929688 10.828125 11.835938 C 10.828125 12.949219 11.054688 12.9375 11.71875 13.199219 L 11.476562 20.15625 C 11.476562 20.480469 11.695312 20.753906 11.976562 20.808594 L 11.976562 20.8125 C 12.015625 20.820312 12.050781 20.824219 12.085938 20.824219 C 12.425781 20.824219 12.703125 20.523438 12.703125 20.15625 L 12.460938 13.203125 C 13.125 12.9375 13.351562 12.957031 13.351562 11.84375 C 13.351562 10.9375 13.214844 9.183594 13.066406 8.253906 L 12.925781 8.253906 Z M 12.925781 8.25 "/>
</g>
</svg>
