<?xml version="1.0" encoding="UTF-8"?>
<svg xmlns="http://www.w3.org/2000/svg" xmlns:xlink="http://www.w3.org/1999/xlink" width="30pt" height="30pt" viewBox="0 0 30 30" version="1.1">
<defs>
<radialGradient id="radial0" gradientUnits="userSpaceOnUse" cx="25" cy="25.0003" fx="25" fy="25.0003" r="22.3363" gradientTransform="matrix(0.509211,0,0,0.512763,2.072368,1.983197)">
<stop offset="0" style="stop-color:rgb(60.784314%,100%,51.372549%);stop-opacity:1;"/>
<stop offset="0.6042" style="stop-color:rgb(31.764706%,77.647059%,20.392157%);stop-opacity:1;"/>
<stop offset="1" style="stop-color:rgb(25.098039%,65.098039%,16.078431%);stop-opacity:1;"/>
</radialGradient>
</defs>
<g id="surface1">
<path style=" stroke:none;fill-rule:nonzero;fill:url(#radial0);" d="M 2.664062 21.859375 L 2.664062 7.746094 L 14.800781 0.6875 L 26.941406 7.746094 L 26.941406 21.859375 L 14.800781 28.917969 Z M 2.664062 21.859375 "/>
<path style=" stroke:none;fill-rule:nonzero;fill:rgb(0%,0%,0%);fill-opacity:1;" d="M 14.800781 1.367188 L 26.347656 8.082031 L 26.347656 21.523438 L 14.800781 28.238281 L 3.257812 21.523438 L 3.257812 8.082031 L 14.800781 1.367188 M 14.800781 0 L 2.074219 7.402344 L 2.074219 22.203125 L 14.800781 29.605469 L 27.53125 22.203125 L 27.53125 7.402344 Z M 14.800781 0 "/>
<path style=" stroke:none;fill-rule:nonzero;fill:rgb(0%,0%,0%);fill-opacity:1;" d="M 9.089844 21.804688 L 8.957031 21.671875 C 8.824219 21.53125 8.824219 21.304688 8.957031 21.167969 L 22.222656 7.90625 C 22.359375 7.765625 22.589844 7.765625 22.722656 7.90625 L 22.855469 8.035156 C 22.992188 8.171875 22.992188 8.402344 22.855469 8.539062 L 9.589844 21.804688 C 9.457031 21.941406 9.230469 21.941406 9.089844 21.804688 Z M 9.089844 21.804688 "/>
<path style=" stroke:none;fill-rule:nonzero;fill:rgb(0%,0%,0%);fill-opacity:1;" d="M 22.371094 8.238281 L 24.390625 10.253906 C 24.464844 10.332031 24.597656 10.332031 24.675781 10.253906 L 24.738281 10.1875 C 24.8125 10.109375 24.8125 9.984375 24.738281 9.90625 L 22.695312 7.863281 L 22.371094 8.1875 C 22.359375 8.207031 22.359375 8.226562 22.371094 8.238281 Z M 22.371094 8.238281 "/>
<path style=" stroke:none;fill-rule:nonzero;fill:rgb(0%,0%,0%);fill-opacity:1;" d="M 21.648438 8.957031 L 23.664062 10.980469 C 23.742188 11.054688 23.875 11.054688 23.949219 10.980469 L 24.015625 10.914062 C 24.09375 10.835938 24.09375 10.703125 24.015625 10.628906 L 21.972656 8.585938 L 21.648438 8.914062 C 21.636719 8.929688 21.636719 8.945312 21.648438 8.957031 Z M 21.648438 8.957031 "/>
<path style=" stroke:none;fill-rule:nonzero;fill:rgb(0%,0%,0%);fill-opacity:1;" d="M 20.921875 9.6875 L 22.9375 11.707031 C 23.011719 11.785156 23.144531 11.785156 23.222656 11.707031 L 23.289062 11.640625 C 23.363281 11.566406 23.363281 11.433594 23.289062 11.355469 L 21.242188 9.3125 L 20.921875 9.640625 C 20.910156 9.65625 20.910156 9.675781 20.921875 9.6875 Z M 20.921875 9.6875 "/>
<path style=" stroke:none;fill-rule:nonzero;fill:rgb(0%,0%,0%);fill-opacity:1;" d="M 20.195312 10.40625 L 22.214844 12.429688 C 22.292969 12.503906 22.421875 12.503906 22.5 12.429688 L 22.566406 12.363281 C 22.644531 12.285156 22.644531 12.15625 22.566406 12.078125 L 20.523438 10.039062 L 20.195312 10.363281 C 20.183594 10.382812 20.183594 10.398438 20.195312 10.40625 Z M 20.195312 10.40625 "/>
<path style=" stroke:none;fill-rule:nonzero;fill:rgb(0%,0%,0%);fill-opacity:1;" d="M 19.46875 11.136719 L 21.488281 13.15625 C 21.5625 13.234375 21.695312 13.234375 21.773438 13.15625 L 21.835938 13.089844 C 21.914062 13.015625 21.914062 12.882812 21.835938 12.804688 L 19.792969 10.761719 L 19.46875 11.089844 C 19.457031 11.109375 19.457031 11.125 19.46875 11.136719 Z M 19.46875 11.136719 "/>
<path style=" stroke:none;fill-rule:nonzero;fill:rgb(0%,0%,0%);fill-opacity:1;" d="M 18.746094 11.863281 L 20.765625 13.878906 C 20.84375 13.953125 20.972656 13.953125 21.046875 13.878906 L 21.113281 13.8125 C 21.191406 13.738281 21.191406 13.609375 21.113281 13.53125 L 19.070312 11.488281 L 18.746094 11.8125 C 18.734375 11.832031 18.734375 11.851562 18.746094 11.863281 Z M 18.746094 11.863281 "/>
<path style=" stroke:none;fill-rule:nonzero;fill:rgb(0%,0%,0%);fill-opacity:1;" d="M 18.015625 12.589844 L 20.039062 14.605469 C 20.113281 14.683594 20.246094 14.683594 20.324219 14.605469 L 20.382812 14.539062 C 20.460938 14.464844 20.460938 14.335938 20.382812 14.257812 L 18.34375 12.214844 L 18.015625 12.539062 C 18.007812 12.558594 18.007812 12.574219 18.015625 12.589844 Z M 18.015625 12.589844 "/>
<path style=" stroke:none;fill-rule:nonzero;fill:rgb(0%,0%,0%);fill-opacity:1;" d="M 17.289062 13.3125 L 19.308594 15.332031 C 19.386719 15.40625 19.515625 15.40625 19.59375 15.332031 L 19.660156 15.265625 C 19.734375 15.1875 19.734375 15.058594 19.660156 14.980469 L 17.617188 12.9375 L 17.289062 13.265625 C 17.285156 13.289062 17.285156 13.304688 17.289062 13.3125 Z M 17.289062 13.3125 "/>
<path style=" stroke:none;fill-rule:nonzero;fill:rgb(0%,0%,0%);fill-opacity:1;" d="M 16.566406 14.039062 L 18.589844 16.058594 C 18.660156 16.136719 18.792969 16.136719 18.871094 16.058594 L 18.933594 15.992188 C 19.011719 15.917969 19.011719 15.785156 18.933594 15.707031 L 16.890625 13.664062 L 16.566406 13.992188 C 16.554688 14.007812 16.554688 14.027344 16.566406 14.039062 Z M 16.566406 14.039062 "/>
<path style=" stroke:none;fill-rule:nonzero;fill:rgb(0%,0%,0%);fill-opacity:1;" d="M 15.839844 14.769531 L 17.859375 16.789062 C 17.9375 16.863281 18.0625 16.863281 18.140625 16.789062 L 18.207031 16.722656 C 18.285156 16.644531 18.285156 16.515625 18.207031 16.4375 L 16.164062 14.394531 L 15.839844 14.71875 C 15.828125 14.738281 15.828125 14.757812 15.839844 14.769531 Z M 15.839844 14.769531 "/>
<path style=" stroke:none;fill-rule:nonzero;fill:rgb(0%,0%,0%);fill-opacity:1;" d="M 15.113281 15.488281 L 17.136719 17.507812 C 17.210938 17.585938 17.34375 17.585938 17.421875 17.507812 L 17.484375 17.441406 C 17.5625 17.367188 17.5625 17.234375 17.484375 17.15625 L 15.441406 15.113281 L 15.113281 15.441406 C 15.101562 15.457031 15.101562 15.476562 15.113281 15.488281 Z M 15.113281 15.488281 "/>
<path style=" stroke:none;fill-rule:nonzero;fill:rgb(0%,0%,0%);fill-opacity:1;" d="M 14.386719 16.21875 L 16.40625 18.238281 C 16.484375 18.3125 16.613281 18.3125 16.691406 18.238281 L 16.757812 18.171875 C 16.835938 18.09375 16.835938 17.964844 16.757812 17.886719 L 14.714844 15.84375 L 14.386719 16.171875 C 14.375 16.1875 14.375 16.207031 14.386719 16.21875 Z M 14.386719 16.21875 "/>
<path style=" stroke:none;fill-rule:nonzero;fill:rgb(0%,0%,0%);fill-opacity:1;" d="M 10.316406 10.96875 C 10.652344 11.246094 11.054688 11.414062 11.46875 11.453125 C 11.71875 11.476562 11.960938 11.445312 12.179688 11.375 L 13.355469 14.523438 L 14.273438 14.195312 L 12.800781 10.984375 C 12.878906 10.90625 12.945312 10.824219 13.003906 10.734375 C 13.453125 10.03125 13.292969 9.027344 12.628906 8.351562 C 12.261719 7.976562 11.789062 7.746094 11.289062 7.703125 C 10.78125 7.65625 10.316406 7.816406 9.976562 8.148438 C 9.894531 8.230469 9.816406 8.320312 9.757812 8.417969 C 9.414062 8.957031 9.425781 9.667969 9.753906 10.277344 C 9.722656 10.308594 9.691406 10.339844 9.667969 10.375 C 9.535156 10.582031 9.597656 10.859375 9.808594 10.988281 C 9.972656 11.089844 10.171875 11.070312 10.316406 10.96875 Z M 10.214844 8.703125 C 10.253906 8.640625 10.304688 8.582031 10.363281 8.527344 C 10.585938 8.308594 10.90625 8.199219 11.257812 8.230469 C 11.621094 8.261719 11.976562 8.4375 12.257812 8.722656 C 12.746094 9.226562 12.878906 9.945312 12.5625 10.445312 C 12.523438 10.507812 12.472656 10.570312 12.425781 10.625 C 12.195312 10.839844 11.875 10.949219 11.53125 10.917969 C 11.160156 10.890625 10.804688 10.710938 10.527344 10.425781 C 10.023438 9.921875 9.894531 9.203125 10.214844 8.703125 Z M 10.214844 8.703125 "/>
<path style=" stroke:none;fill-rule:nonzero;fill:rgb(0%,0%,0%);fill-opacity:1;" d="M 4.859375 12.71875 C 4.972656 12.757812 6.308594 12.472656 6.738281 13 C 6.863281 13.210938 7.023438 13.40625 7.210938 13.578125 C 7.839844 14.128906 8.691406 14.269531 9.347656 13.964844 L 13.300781 15.820312 L 19.90625 21.707031 L 20.5 21.917969 L 20.472656 21.890625 L 20.128906 21.304688 L 14.566406 14.589844 L 13.445312 14.910156 L 10.066406 13.292969 C 10.230469 12.984375 10.296875 12.617188 10.238281 12.238281 C 10.164062 11.746094 9.90625 11.289062 9.511719 10.945312 C 8.792969 10.320312 7.785156 10.21875 7.113281 10.703125 C 7.015625 10.777344 6.925781 10.851562 6.851562 10.945312 C 6.679688 11.144531 6.5625 11.378906 6.503906 11.632812 C 6.121094 12.230469 5.234375 12.152344 5.039062 12.195312 C 4.847656 12.25 4.742188 12.671875 4.859375 12.71875 Z M 14.117188 15.355469 C 14.226562 15.246094 14.40625 15.253906 14.511719 15.359375 C 14.617188 15.472656 14.613281 15.652344 14.503906 15.753906 C 14.394531 15.863281 14.214844 15.855469 14.109375 15.75 C 14.003906 15.640625 14.003906 15.457031 14.117188 15.355469 Z M 7.011719 12.203125 C 6.957031 11.855469 7.046875 11.535156 7.253906 11.289062 C 7.304688 11.234375 7.359375 11.179688 7.425781 11.136719 C 7.898438 10.792969 8.628906 10.882812 9.160156 11.34375 C 9.464844 11.605469 9.65625 11.953125 9.710938 12.316406 C 9.765625 12.667969 9.675781 12.984375 9.46875 13.226562 C 9.414062 13.289062 9.359375 13.339844 9.296875 13.378906 C 8.824219 13.722656 8.085938 13.632812 7.558594 13.175781 C 7.257812 12.90625 7.0625 12.5625 7.011719 12.203125 Z M 7.011719 12.203125 "/>
</g>
</svg>
