<?xml version="1.0" encoding="UTF-8"?>
<svg xmlns="http://www.w3.org/2000/svg" xmlns:xlink="http://www.w3.org/1999/xlink" width="30pt" height="30pt" viewBox="0 0 30 30" version="1.1">
<defs>
<radialGradient id="radial0" gradientUnits="userSpaceOnUse" cx="25" cy="25" fx="25" fy="25" r="22.8794" gradientTransform="matrix(0.512033,0,0,0.515606,2.083856,1.994191)">
<stop offset="0" style="stop-color:rgb(60.784314%,100%,51.372549%);stop-opacity:1;"/>
<stop offset="0.6042" style="stop-color:rgb(31.764706%,77.647059%,20.392157%);stop-opacity:1;"/>
<stop offset="1" style="stop-color:rgb(25.098039%,65.098039%,16.078431%);stop-opacity:1;"/>
</radialGradient>
</defs>
<g id="surface1">
<path style=" stroke:none;fill-rule:nonzero;fill:url(#radial0);" d="M 2.378906 22.15625 L 2.378906 7.613281 L 14.886719 0.34375 L 27.386719 7.613281 L 27.386719 22.15625 L 14.886719 29.421875 Z M 2.378906 22.15625 "/>
<path style=" stroke:none;fill-rule:nonzero;fill:rgb(0%,0%,0%);fill-opacity:1;" d="M 14.886719 0.691406 L 27.089844 7.785156 L 27.089844 21.988281 L 14.886719 29.078125 L 2.683594 21.984375 L 2.683594 7.785156 L 14.886719 0.691406 M 14.886719 0 L 2.085938 7.441406 L 2.085938 22.328125 L 14.886719 29.773438 L 27.683594 22.328125 L 27.683594 7.441406 Z M 14.886719 0 "/>
<path style=" stroke:none;fill-rule:nonzero;fill:rgb(0%,0%,0%);fill-opacity:1;" d="M 14.203125 19.683594 C 14.117188 19.683594 14.050781 19.660156 13.988281 19.609375 C 13.917969 19.648438 13.867188 19.726562 13.867188 19.816406 L 13.867188 20.074219 C 13.867188 20.285156 14.023438 20.457031 14.214844 20.488281 L 14.273438 20.726562 C 14.316406 20.855469 14.425781 20.949219 14.5625 20.949219 L 15.203125 20.949219 C 15.332031 20.949219 15.445312 20.855469 15.488281 20.726562 L 15.550781 20.488281 C 15.75 20.457031 15.902344 20.285156 15.902344 20.074219 L 15.902344 19.816406 C 15.902344 19.726562 15.855469 19.660156 15.785156 19.609375 C 15.722656 19.660156 15.648438 19.683594 15.566406 19.683594 Z M 14.203125 19.683594 "/>
<path style=" stroke:none;fill-rule:nonzero;fill:rgb(0%,0%,0%);fill-opacity:1;" d="M 15.574219 14.6875 C 15.355469 14.695312 15.125 14.699219 14.886719 14.699219 C 14.648438 14.699219 14.417969 14.695312 14.183594 14.6875 C 13.308594 14.980469 12.683594 15.808594 12.6875 16.789062 C 12.695312 17.371094 12.925781 17.894531 13.300781 18.285156 C 13.59375 18.582031 13.78125 18.96875 13.839844 19.382812 C 13.855469 19.476562 13.917969 19.554688 13.988281 19.609375 C 14.023438 19.582031 14.066406 19.566406 14.117188 19.566406 L 15.648438 19.566406 C 15.703125 19.566406 15.746094 19.582031 15.785156 19.609375 C 15.855469 19.554688 15.90625 19.46875 15.925781 19.371094 C 15.988281 18.960938 16.179688 18.582031 16.460938 18.285156 C 16.839844 17.890625 17.082031 17.355469 17.082031 16.761719 C 17.074219 15.800781 16.445312 14.980469 15.574219 14.6875 Z M 14.886719 15.6875 C 14.28125 15.6875 13.792969 16.179688 13.792969 16.773438 C 13.792969 16.90625 13.683594 17.023438 13.550781 17.023438 C 13.414062 17.023438 13.300781 16.90625 13.300781 16.773438 C 13.300781 15.894531 14.011719 15.1875 14.886719 15.1875 C 15.023438 15.1875 15.128906 15.300781 15.128906 15.4375 C 15.128906 15.574219 15.023438 15.6875 14.886719 15.6875 Z M 14.886719 15.6875 "/>
<path style=" stroke:none;fill-rule:nonzero;fill:rgb(0%,0%,0%);fill-opacity:1;" d="M 14.117188 19.566406 C 14.078125 19.566406 14.027344 19.582031 13.988281 19.609375 C 14.046875 19.660156 14.117188 19.683594 14.203125 19.683594 L 15.5625 19.683594 C 15.648438 19.683594 15.71875 19.660156 15.773438 19.609375 C 15.734375 19.582031 15.695312 19.566406 15.648438 19.566406 Z M 14.117188 19.566406 "/>
<path style=" stroke:none;fill-rule:nonzero;fill:rgb(0%,0%,0%);fill-opacity:1;" d="M 11.980469 16.316406 C 11.980469 16.179688 11.871094 16.0625 11.730469 16.0625 L 10.863281 16.0625 C 10.730469 16.0625 10.613281 16.175781 10.613281 16.316406 C 10.613281 16.445312 10.722656 16.550781 10.863281 16.550781 L 11.730469 16.550781 C 11.863281 16.550781 11.980469 16.445312 11.980469 16.316406 Z M 11.980469 16.316406 "/>
<path style=" stroke:none;fill-rule:nonzero;fill:rgb(0%,0%,0%);fill-opacity:1;" d="M 18.902344 16.0625 L 18.042969 16.0625 C 17.902344 16.0625 17.785156 16.175781 17.785156 16.316406 C 17.785156 16.445312 17.894531 16.550781 18.042969 16.550781 L 18.902344 16.550781 C 19.042969 16.550781 19.152344 16.445312 19.152344 16.316406 C 19.152344 16.179688 19.042969 16.0625 18.902344 16.0625 Z M 18.902344 16.0625 "/>
<path style=" stroke:none;fill-rule:nonzero;fill:rgb(0%,0%,0%);fill-opacity:1;" d="M 12.476562 18.367188 L 11.863281 18.980469 C 11.769531 19.078125 11.769531 19.230469 11.863281 19.332031 C 11.914062 19.382812 11.980469 19.402344 12.035156 19.402344 C 12.097656 19.402344 12.164062 19.382812 12.214844 19.332031 L 12.824219 18.71875 C 12.921875 18.625 12.921875 18.46875 12.824219 18.367188 C 12.734375 18.269531 12.578125 18.269531 12.476562 18.367188 Z M 12.476562 18.367188 "/>
<path style=" stroke:none;fill-rule:nonzero;fill:rgb(0%,0%,0%);fill-opacity:1;" d="M 17.808594 13.738281 L 17.289062 14.257812 C 17.285156 14.265625 17.273438 14.269531 17.261719 14.273438 C 17.179688 14.289062 17.101562 14.300781 17.011719 14.308594 C 16.992188 14.292969 16.960938 14.28125 16.9375 14.257812 C 16.839844 14.164062 16.839844 14 16.9375 13.90625 L 17.21875 13.632812 C 17.453125 13.664062 17.648438 13.699219 17.808594 13.738281 Z M 17.808594 13.738281 "/>
<path style=" stroke:none;fill-rule:nonzero;fill:rgb(0%,0%,0%);fill-opacity:1;" d="M 12.828125 14.253906 C 12.808594 14.273438 12.773438 14.292969 12.75 14.308594 C 12.664062 14.300781 12.585938 14.289062 12.511719 14.273438 C 12.5 14.269531 12.492188 14.265625 12.476562 14.253906 L 11.960938 13.734375 C 12.117188 13.695312 12.316406 13.660156 12.550781 13.628906 L 12.824219 13.902344 C 12.925781 14 12.925781 14.160156 12.828125 14.253906 Z M 12.828125 14.253906 "/>
<path style=" stroke:none;fill-rule:nonzero;fill:rgb(0%,0%,0%);fill-opacity:1;" d="M 17.289062 18.367188 C 17.195312 18.269531 17.042969 18.269531 16.9375 18.367188 C 16.839844 18.460938 16.839844 18.617188 16.9375 18.71875 L 17.554688 19.332031 C 17.597656 19.382812 17.664062 19.402344 17.722656 19.402344 C 17.785156 19.402344 17.851562 19.382812 17.894531 19.332031 C 17.992188 19.234375 17.992188 19.082031 17.894531 18.980469 Z M 17.289062 18.367188 "/>
<path style=" stroke:none;fill-rule:nonzero;fill:rgb(0%,0%,0%);fill-opacity:1;" d="M 19.898438 13.335938 L 19.898438 12.160156 L 21.03125 11.527344 L 14.886719 8.25 L 8.738281 11.527344 L 11.1875 12.945312 L 11.1875 13.855469 C 11.195312 13.855469 11.199219 13.851562 11.203125 13.839844 C 11.183594 13.878906 11.164062 13.917969 11.164062 13.953125 C 11.164062 14.316406 12.464844 14.617188 14.183594 14.683594 C 14.402344 14.609375 14.628906 14.578125 14.867188 14.566406 C 15.113281 14.566406 15.351562 14.609375 15.566406 14.683594 C 17.289062 14.617188 18.597656 14.316406 18.597656 13.953125 C 18.597656 13.917969 18.582031 13.878906 18.558594 13.839844 C 18.5625 13.851562 18.574219 13.851562 18.582031 13.855469 L 18.582031 12.945312 L 19.660156 12.292969 L 19.660156 13.335938 C 19.53125 13.386719 19.457031 13.5 19.457031 13.632812 C 19.457031 13.816406 19.605469 13.957031 19.78125 13.957031 C 19.957031 13.957031 20.097656 13.816406 20.097656 13.632812 C 20.09375 13.496094 20.019531 13.386719 19.898438 13.335938 Z M 17.261719 14.273438 C 17.21875 14.308594 17.167969 14.335938 17.113281 14.335938 C 17.082031 14.335938 17.054688 14.324219 17.023438 14.316406 C 16.445312 14.386719 15.703125 14.425781 14.890625 14.425781 C 14.078125 14.425781 13.332031 14.386719 12.753906 14.316406 C 12.722656 14.324219 12.6875 14.335938 12.660156 14.335938 C 12.613281 14.335938 12.5625 14.316406 12.523438 14.28125 C 11.941406 14.199219 11.59375 14.085938 11.59375 13.960938 C 11.59375 13.886719 11.730469 13.816406 11.972656 13.75 L 11.875 13.648438 C 11.78125 13.558594 11.78125 13.40625 11.875 13.300781 C 11.972656 13.207031 12.128906 13.207031 12.230469 13.300781 L 12.566406 13.636719 C 13.164062 13.550781 13.992188 13.5 14.902344 13.5 C 15.816406 13.5 16.636719 13.558594 17.238281 13.636719 L 17.574219 13.300781 C 17.664062 13.207031 17.820312 13.207031 17.921875 13.300781 C 18.019531 13.394531 18.019531 13.558594 17.921875 13.648438 L 17.832031 13.75 C 18.066406 13.816406 18.203125 13.886719 18.203125 13.960938 C 18.179688 14.078125 17.835938 14.195312 17.261719 14.273438 Z M 14.644531 13.160156 L 14.644531 12.289062 C 14.644531 12.152344 14.75 12.046875 14.890625 12.046875 C 15.027344 12.046875 15.136719 12.152344 15.136719 12.289062 L 15.136719 13.160156 C 15.136719 13.292969 15.027344 13.40625 14.890625 13.40625 C 14.75 13.40625 14.644531 13.292969 14.644531 13.160156 Z M 18.507812 12.265625 C 18.261719 12 17.382812 11.308594 14.890625 11.308594 C 12.394531 11.308594 11.515625 12 11.269531 12.265625 L 11.269531 12.015625 C 11.269531 12.015625 11.988281 10.945312 14.890625 10.945312 C 17.785156 10.945312 18.507812 12.015625 18.507812 12.015625 Z M 18.507812 12.265625 "/>
<path style=" stroke:none;fill-rule:nonzero;fill:rgb(0%,0%,0%);fill-opacity:1;" d="M 14.195312 14.6875 C 14.421875 14.695312 14.652344 14.699219 14.890625 14.699219 C 15.128906 14.699219 15.355469 14.695312 15.582031 14.6875 C 15.359375 14.617188 15.125 14.578125 14.878906 14.578125 C 14.632812 14.578125 14.402344 14.617188 14.195312 14.6875 Z M 14.195312 14.6875 "/>
<path style=" stroke:none;fill-rule:nonzero;fill:rgb(0%,0%,0%);fill-opacity:1;" d="M 17.113281 14.335938 C 17.167969 14.335938 17.21875 14.316406 17.261719 14.273438 C 17.179688 14.289062 17.101562 14.300781 17.023438 14.308594 C 17.054688 14.320312 17.082031 14.335938 17.113281 14.335938 Z M 17.113281 14.335938 "/>
<path style=" stroke:none;fill-rule:nonzero;fill:rgb(0%,0%,0%);fill-opacity:1;" d="M 12.652344 14.324219 C 12.683594 14.324219 12.71875 14.320312 12.75 14.308594 C 12.664062 14.292969 12.585938 14.289062 12.511719 14.273438 C 12.558594 14.308594 12.609375 14.324219 12.652344 14.324219 Z M 12.652344 14.324219 "/>
<path style=" stroke:none;fill-rule:nonzero;fill:rgb(0%,0%,0%);fill-opacity:1;" d="M 19.519531 14.023438 L 19.382812 15.839844 C 19.777344 15.234375 20.09375 15.460938 20.09375 15.460938 L 20.09375 14.011719 C 19.679688 14.183594 19.519531 14.023438 19.519531 14.023438 Z M 19.519531 14.023438 "/>
</g>
</svg>
