<?xml version="1.0" encoding="UTF-8"?>
<svg xmlns="http://www.w3.org/2000/svg" xmlns:xlink="http://www.w3.org/1999/xlink" width="30pt" height="30pt" viewBox="0 0 30 30" version="1.1">
<defs>
<radialGradient id="radial0" gradientUnits="userSpaceOnUse" cx="25" cy="25.0003" fx="25" fy="25.0003" r="22.3363" gradientTransform="matrix(0.516,0,0,0.5196,2.1,2.00964)">
<stop offset="0" style="stop-color:rgb(98.823529%,81.960784%,59.215686%);stop-opacity:1;"/>
<stop offset="0.6042" style="stop-color:rgb(100%,76.470588%,45.098039%);stop-opacity:1;"/>
<stop offset="1" style="stop-color:rgb(100%,50.196078%,0.392157%);stop-opacity:1;"/>
</radialGradient>
</defs>
<g id="surface1">
<path style=" stroke:none;fill-rule:nonzero;fill:url(#radial0);" d="M 2.699219 22.152344 L 2.699219 7.847656 L 15 0.699219 L 27.300781 7.847656 L 27.300781 22.152344 L 15 29.300781 Z M 2.699219 22.152344 "/>
<path style=" stroke:none;fill-rule:nonzero;fill:rgb(0%,0%,0%);fill-opacity:1;" d="M 15 1.386719 L 26.699219 8.191406 L 26.699219 21.808594 L 15 28.613281 L 3.300781 21.808594 L 3.300781 8.191406 L 15 1.386719 M 15 0 L 2.101562 7.5 L 2.101562 22.5 L 15 30 L 27.898438 22.5 L 27.898438 7.5 Z M 15 0 "/>
<path style=" stroke:none;fill-rule:nonzero;fill:rgb(0%,0%,0%);fill-opacity:1;" d="M 14.316406 19.835938 C 14.230469 19.835938 14.160156 19.804688 14.09375 19.757812 C 14.019531 19.800781 13.972656 19.878906 13.972656 19.96875 L 13.972656 20.230469 C 13.972656 20.441406 14.128906 20.617188 14.328125 20.644531 L 14.386719 20.886719 C 14.421875 21.019531 14.535156 21.109375 14.675781 21.109375 L 15.320312 21.109375 C 15.449219 21.109375 15.570312 21.019531 15.605469 20.886719 L 15.671875 20.644531 C 15.871094 20.617188 16.027344 20.441406 16.027344 20.230469 L 16.027344 19.96875 C 16.027344 19.878906 15.980469 19.804688 15.90625 19.757812 C 15.847656 19.804688 15.769531 19.835938 15.691406 19.835938 Z M 14.316406 19.835938 "/>
<path style=" stroke:none;fill-rule:nonzero;fill:rgb(0%,0%,0%);fill-opacity:1;" d="M 15.699219 14.800781 C 15.472656 14.808594 15.238281 14.816406 15 14.816406 C 14.761719 14.816406 14.527344 14.808594 14.296875 14.800781 C 13.410156 15.097656 12.777344 15.929688 12.785156 16.917969 C 12.792969 17.503906 13.027344 18.035156 13.402344 18.425781 C 13.699219 18.726562 13.882812 19.117188 13.949219 19.527344 C 13.964844 19.625 14.019531 19.707031 14.09375 19.757812 C 14.128906 19.734375 14.175781 19.714844 14.226562 19.714844 L 15.769531 19.714844 C 15.824219 19.714844 15.863281 19.734375 15.90625 19.757812 C 15.980469 19.707031 16.03125 19.621094 16.050781 19.523438 C 16.109375 19.109375 16.300781 18.726562 16.589844 18.425781 C 16.972656 18.027344 17.214844 17.488281 17.214844 16.890625 C 17.207031 15.921875 16.578125 15.097656 15.699219 14.800781 Z M 15 15.808594 C 14.394531 15.808594 13.902344 16.300781 13.902344 16.902344 C 13.902344 17.039062 13.792969 17.152344 13.65625 17.152344 C 13.519531 17.152344 13.402344 17.039062 13.402344 16.902344 C 13.402344 16.019531 14.117188 15.304688 15 15.304688 C 15.136719 15.304688 15.246094 15.417969 15.246094 15.558594 C 15.246094 15.699219 15.136719 15.808594 15 15.808594 Z M 15 15.808594 "/>
<path style=" stroke:none;fill-rule:nonzero;fill:rgb(0%,0%,0%);fill-opacity:1;" d="M 14.230469 19.714844 C 14.183594 19.714844 14.136719 19.734375 14.09375 19.757812 C 14.152344 19.804688 14.230469 19.835938 14.316406 19.835938 L 15.683594 19.835938 C 15.769531 19.835938 15.839844 19.804688 15.898438 19.757812 C 15.859375 19.734375 15.816406 19.714844 15.769531 19.714844 Z M 14.230469 19.714844 "/>
<path style=" stroke:none;fill-rule:nonzero;fill:rgb(0%,0%,0%);fill-opacity:1;" d="M 12.074219 16.441406 C 12.074219 16.300781 11.964844 16.191406 11.820312 16.191406 L 10.949219 16.191406 C 10.808594 16.191406 10.699219 16.292969 10.699219 16.441406 C 10.699219 16.578125 10.804688 16.683594 10.949219 16.683594 L 11.820312 16.683594 C 11.957031 16.683594 12.074219 16.578125 12.074219 16.441406 Z M 12.074219 16.441406 "/>
<path style=" stroke:none;fill-rule:nonzero;fill:rgb(0%,0%,0%);fill-opacity:1;" d="M 19.050781 16.191406 L 18.179688 16.191406 C 18.042969 16.191406 17.925781 16.292969 17.925781 16.441406 C 17.925781 16.578125 18.035156 16.683594 18.179688 16.683594 L 19.050781 16.683594 C 19.191406 16.683594 19.300781 16.578125 19.300781 16.441406 C 19.300781 16.300781 19.191406 16.191406 19.050781 16.191406 Z M 19.050781 16.191406 "/>
<path style=" stroke:none;fill-rule:nonzero;fill:rgb(0%,0%,0%);fill-opacity:1;" d="M 12.578125 18.511719 L 11.957031 19.128906 C 11.863281 19.222656 11.863281 19.378906 11.957031 19.480469 C 12.003906 19.527344 12.074219 19.550781 12.132812 19.550781 C 12.191406 19.550781 12.257812 19.527344 12.304688 19.480469 L 12.921875 18.863281 C 13.019531 18.769531 13.019531 18.613281 12.921875 18.511719 C 12.835938 18.414062 12.671875 18.414062 12.578125 18.511719 Z M 12.578125 18.511719 "/>
<path style=" stroke:none;fill-rule:nonzero;fill:rgb(0%,0%,0%);fill-opacity:1;" d="M 17.949219 13.847656 L 17.421875 14.371094 C 17.417969 14.375 17.40625 14.382812 17.394531 14.386719 C 17.316406 14.398438 17.238281 14.410156 17.148438 14.417969 C 17.125 14.40625 17.09375 14.394531 17.070312 14.371094 C 16.972656 14.273438 16.972656 14.113281 17.070312 14.015625 L 17.351562 13.738281 C 17.585938 13.769531 17.785156 13.804688 17.949219 13.847656 Z M 17.949219 13.847656 "/>
<path style=" stroke:none;fill-rule:nonzero;fill:rgb(0%,0%,0%);fill-opacity:1;" d="M 12.929688 14.363281 C 12.90625 14.386719 12.875 14.40625 12.847656 14.417969 C 12.761719 14.410156 12.683594 14.398438 12.613281 14.386719 C 12.601562 14.382812 12.589844 14.375 12.578125 14.363281 L 12.050781 13.84375 C 12.210938 13.800781 12.40625 13.761719 12.648438 13.734375 L 12.921875 14.011719 C 13.027344 14.113281 13.027344 14.269531 12.929688 14.363281 Z M 12.929688 14.363281 "/>
<path style=" stroke:none;fill-rule:nonzero;fill:rgb(0%,0%,0%);fill-opacity:1;" d="M 17.421875 18.511719 C 17.328125 18.414062 17.171875 18.414062 17.070312 18.511719 C 16.972656 18.605469 16.972656 18.761719 17.070312 18.863281 L 17.691406 19.480469 C 17.738281 19.527344 17.800781 19.550781 17.863281 19.550781 C 17.921875 19.550781 17.988281 19.527344 18.035156 19.480469 C 18.132812 19.386719 18.132812 19.230469 18.035156 19.128906 Z M 17.421875 18.511719 "/>
<path style=" stroke:none;fill-rule:nonzero;fill:rgb(0%,0%,0%);fill-opacity:1;" d="M 20.050781 13.441406 L 20.050781 12.253906 L 21.199219 11.617188 L 15 8.308594 L 8.800781 11.617188 L 11.273438 13.050781 L 11.273438 13.964844 C 11.277344 13.964844 11.285156 13.957031 11.292969 13.949219 C 11.269531 13.988281 11.25 14.019531 11.25 14.058594 C 11.25 14.421875 12.566406 14.730469 14.296875 14.792969 C 14.511719 14.722656 14.742188 14.691406 14.980469 14.679688 C 15.230469 14.679688 15.46875 14.722656 15.691406 14.792969 C 17.421875 14.730469 18.746094 14.421875 18.746094 14.058594 C 18.746094 14.019531 18.726562 13.988281 18.703125 13.949219 C 18.707031 13.957031 18.722656 13.957031 18.726562 13.964844 L 18.726562 13.050781 L 19.804688 12.390625 L 19.804688 13.441406 C 19.683594 13.488281 19.609375 13.609375 19.609375 13.738281 C 19.609375 13.917969 19.753906 14.066406 19.929688 14.066406 C 20.113281 14.066406 20.253906 13.917969 20.253906 13.738281 C 20.25 13.601562 20.171875 13.488281 20.050781 13.441406 Z M 17.394531 14.386719 C 17.351562 14.417969 17.300781 14.441406 17.25 14.441406 C 17.214844 14.441406 17.183594 14.433594 17.152344 14.421875 C 16.578125 14.496094 15.824219 14.535156 15.003906 14.535156 C 14.183594 14.535156 13.433594 14.496094 12.851562 14.421875 C 12.824219 14.433594 12.785156 14.441406 12.753906 14.441406 C 12.707031 14.441406 12.660156 14.421875 12.617188 14.394531 C 12.035156 14.308594 11.679688 14.199219 11.679688 14.070312 C 11.679688 13.992188 11.820312 13.917969 12.066406 13.855469 L 11.972656 13.757812 C 11.875 13.660156 11.875 13.503906 11.972656 13.402344 C 12.066406 13.308594 12.222656 13.308594 12.324219 13.402344 L 12.664062 13.746094 C 13.265625 13.65625 14.101562 13.609375 15.019531 13.609375 C 15.933594 13.609375 16.761719 13.660156 17.371094 13.746094 L 17.707031 13.402344 C 17.800781 13.308594 17.957031 13.308594 18.058594 13.402344 C 18.15625 13.5 18.15625 13.660156 18.058594 13.757812 L 17.964844 13.855469 C 18.210938 13.917969 18.347656 13.992188 18.347656 14.070312 C 18.324219 14.191406 17.972656 14.300781 17.394531 14.386719 Z M 14.753906 13.261719 L 14.753906 12.382812 C 14.753906 12.246094 14.863281 12.136719 15.003906 12.136719 C 15.144531 12.136719 15.253906 12.246094 15.253906 12.382812 L 15.253906 13.261719 C 15.253906 13.398438 15.144531 13.511719 15.003906 13.511719 C 14.863281 13.511719 14.753906 13.398438 14.753906 13.261719 Z M 18.648438 12.359375 C 18.402344 12.097656 17.511719 11.398438 15.003906 11.398438 C 12.492188 11.398438 11.605469 12.097656 11.359375 12.359375 L 11.359375 12.109375 C 11.359375 12.109375 12.078125 11.027344 15.003906 11.027344 C 17.925781 11.027344 18.648438 12.109375 18.648438 12.109375 Z M 18.648438 12.359375 "/>
<path style=" stroke:none;fill-rule:nonzero;fill:rgb(0%,0%,0%);fill-opacity:1;" d="M 14.300781 14.800781 C 14.53125 14.808594 14.765625 14.816406 15.003906 14.816406 C 15.246094 14.816406 15.472656 14.808594 15.703125 14.800781 C 15.480469 14.730469 15.238281 14.691406 14.996094 14.691406 C 14.746094 14.695312 14.511719 14.730469 14.300781 14.800781 Z M 14.300781 14.800781 "/>
<path style=" stroke:none;fill-rule:nonzero;fill:rgb(0%,0%,0%);fill-opacity:1;" d="M 17.25 14.441406 C 17.300781 14.441406 17.351562 14.421875 17.394531 14.386719 C 17.316406 14.398438 17.238281 14.410156 17.152344 14.417969 C 17.183594 14.429688 17.214844 14.441406 17.25 14.441406 Z M 17.25 14.441406 "/>
<path style=" stroke:none;fill-rule:nonzero;fill:rgb(0%,0%,0%);fill-opacity:1;" d="M 12.75 14.433594 C 12.777344 14.433594 12.816406 14.429688 12.847656 14.417969 C 12.761719 14.40625 12.683594 14.398438 12.613281 14.386719 C 12.652344 14.417969 12.703125 14.433594 12.75 14.433594 Z M 12.75 14.433594 "/>
<path style=" stroke:none;fill-rule:nonzero;fill:rgb(0%,0%,0%);fill-opacity:1;" d="M 19.667969 14.128906 L 19.527344 15.964844 C 19.925781 15.355469 20.25 15.582031 20.25 15.582031 L 20.25 14.125 C 19.832031 14.292969 19.667969 14.128906 19.667969 14.128906 Z M 19.667969 14.128906 "/>
</g>
</svg>
