<?xml version="1.0" encoding="UTF-8"?>
<svg xmlns="http://www.w3.org/2000/svg" xmlns:xlink="http://www.w3.org/1999/xlink" width="30pt" height="30pt" viewBox="0 0 30 30" version="1.1">
<defs>
<radialGradient id="radial0" gradientUnits="userSpaceOnUse" cx="25" cy="25.0003" fx="25" fy="25.0003" r="22.3363" gradientTransform="matrix(0.509211,0,0,0.512763,2.072368,1.983197)">
<stop offset="0" style="stop-color:rgb(98.823529%,81.960784%,59.215686%);stop-opacity:1;"/>
<stop offset="0.6042" style="stop-color:rgb(100%,76.470588%,45.098039%);stop-opacity:1;"/>
<stop offset="1" style="stop-color:rgb(100%,50.196078%,0.392157%);stop-opacity:1;"/>
</radialGradient>
</defs>
<g id="surface1">
<path style=" stroke:none;fill-rule:nonzero;fill:url(#radial0);" d="M 2.664062 21.859375 L 2.664062 7.746094 L 14.800781 0.6875 L 26.941406 7.746094 L 26.941406 21.859375 L 14.800781 28.917969 Z M 2.664062 21.859375 "/>
<path style=" stroke:none;fill-rule:nonzero;fill:rgb(0%,0%,0%);fill-opacity:1;" d="M 14.800781 1.367188 L 26.347656 8.082031 L 26.347656 21.523438 L 14.800781 28.238281 L 3.257812 21.523438 L 3.257812 8.082031 L 14.800781 1.367188 M 14.800781 0 L 2.074219 7.402344 L 2.074219 22.203125 L 14.800781 29.605469 L 27.53125 22.203125 L 27.53125 7.402344 Z M 14.800781 0 "/>
<path style=" stroke:none;fill-rule:nonzero;fill:rgb(0%,0%,0%);fill-opacity:1;" d="M 19.953125 17.972656 C 20.09375 18.074219 20.382812 17.9375 20.472656 17.828125 C 20.566406 17.722656 20.539062 17.484375 20.679688 17.308594 C 20.824219 17.132812 21.398438 16.613281 21.671875 16.449219 C 21.949219 16.273438 22.433594 15.519531 22.453125 15.410156 C 22.46875 15.308594 22.304688 14.960938 22.136719 14.800781 C 21.464844 14.164062 20.550781 13.808594 19.664062 14.21875 C 19.242188 14.417969 18.871094 14.714844 18.449219 14.910156 C 17.699219 15.257812 16.964844 14.980469 16.253906 14.648438 C 15.550781 14.324219 14.8125 13.777344 14.8125 13.777344 C 14.800781 14.402344 15.027344 14.8125 15.027344 14.8125 C 15.027344 14.8125 15.277344 14.773438 15.589844 14.800781 C 15.90625 14.832031 16.605469 15.15625 16.964844 15.253906 C 17.320312 15.347656 18.214844 15.5625 18.546875 15.714844 C 18.878906 15.867188 19.441406 16.394531 19.6875 16.703125 C 19.9375 17.011719 19.816406 17.425781 19.808594 17.617188 C 19.816406 17.796875 19.808594 17.871094 19.953125 17.972656 Z M 19.410156 14.65625 C 19.199219 14.871094 18.816406 15.578125 19.089844 15.875 C 18.828125 15.589844 18.414062 15.371094 18.039062 15.257812 C 18.527344 15.144531 18.992188 14.9375 19.410156 14.65625 Z M 22.105469 15.410156 C 22.105469 15.246094 22.046875 15.085938 21.96875 14.945312 C 21.890625 14.800781 21.785156 14.671875 21.675781 14.539062 C 21.820312 14.695312 21.953125 14.855469 22.085938 15.023438 C 22.0625 14.980469 22.03125 14.945312 22.003906 14.910156 L 22.117188 15.070312 C 22.109375 15.058594 22.097656 15.039062 22.085938 15.027344 C 22.167969 15.144531 22.238281 15.277344 22.292969 15.410156 C 22.234375 15.386719 22.167969 15.394531 22.105469 15.410156 Z M 19.328125 15.75 C 19.253906 15.511719 19.363281 15.023438 19.851562 14.589844 C 20.589844 13.953125 22.003906 14.453125 21.984375 15.476562 C 21.980469 15.84375 21.75 16.195312 21.40625 16.40625 C 21.066406 16.621094 20.347656 16.566406 20.09375 16.492188 C 19.851562 16.417969 19.398438 15.984375 19.328125 15.75 Z M 19.964844 17.652344 C 19.914062 17.460938 20.0625 17.230469 20.042969 17.035156 C 20.027344 16.816406 19.859375 16.648438 19.710938 16.507812 C 19.585938 16.390625 19.464844 16.269531 19.339844 16.148438 C 19.566406 16.335938 19.796875 16.527344 20.070312 16.671875 C 20.21875 16.757812 20.5 16.925781 20.679688 16.839844 C 20.675781 16.839844 20.28125 17.03125 20.25 17.222656 C 20.21875 17.421875 20.160156 17.628906 20.160156 17.628906 C 20.160156 17.628906 19.996094 17.753906 19.964844 17.652344 Z M 19.964844 17.652344 "/>
<path style=" stroke:none;fill-rule:nonzero;fill:rgb(0%,0%,0%);fill-opacity:1;" d="M 20.296875 20.117188 C 20.539062 20.015625 20.835938 20.003906 21.089844 20.140625 C 21.34375 20.292969 21.484375 20.855469 21.714844 21.214844 C 21.949219 21.574219 22.007812 21.597656 22.109375 21.570312 C 22.210938 21.539062 22.027344 21.15625 21.851562 20.753906 C 21.675781 20.351562 21.398438 20.148438 21.089844 19.796875 C 20.78125 19.457031 20.703125 19.023438 20.664062 18.734375 C 20.625 18.449219 20.433594 18.308594 20.304688 18.238281 C 20.183594 18.171875 19.527344 17.949219 19.273438 17.886719 C 19.289062 17.886719 19.300781 17.886719 19.300781 17.886719 C 19.300781 17.886719 19.277344 17.886719 19.230469 17.882812 C 19.222656 17.882812 19.21875 17.882812 19.21875 17.882812 C 19.210938 17.882812 19.199219 17.882812 19.195312 17.875 C 19.136719 17.863281 19.046875 17.851562 18.941406 17.820312 C 18.828125 17.792969 18.691406 17.753906 18.546875 17.699219 C 18.394531 17.640625 18.226562 17.566406 18.046875 17.484375 C 17.871094 17.402344 17.679688 17.296875 17.484375 17.175781 C 17.289062 17.058594 17.082031 16.933594 16.875 16.800781 C 16.667969 16.660156 16.46875 16.507812 16.257812 16.347656 C 16.058594 16.183594 15.863281 16.007812 15.675781 15.820312 C 15.589844 15.726562 15.496094 15.632812 15.417969 15.535156 C 15.335938 15.433594 15.257812 15.332031 15.1875 15.222656 C 15.046875 15.011719 14.921875 14.792969 14.84375 14.566406 C 14.800781 14.453125 14.78125 14.339844 14.761719 14.21875 C 14.746094 14.105469 14.71875 13.984375 14.691406 13.867188 C 14.660156 13.75 14.617188 13.632812 14.546875 13.535156 C 14.527344 13.511719 14.503906 13.480469 14.492188 13.464844 L 14.449219 13.421875 C 14.441406 13.417969 14.449219 13.421875 14.441406 13.417969 L 14.4375 13.410156 L 14.429688 13.40625 C 14.386719 13.367188 14.347656 13.339844 14.304688 13.304688 C 14.148438 13.179688 13.992188 13.078125 13.855469 12.992188 C 13.71875 12.902344 13.601562 12.824219 13.5 12.757812 C 13.398438 12.695312 13.324219 12.648438 13.269531 12.617188 C 13.214844 12.582031 13.1875 12.570312 13.1875 12.570312 C 13.1875 12.570312 13.292969 12.652344 13.46875 12.800781 C 13.558594 12.871094 13.671875 12.960938 13.800781 13.066406 C 13.925781 13.167969 14.070312 13.289062 14.21875 13.417969 C 14.257812 13.453125 14.296875 13.480469 14.335938 13.519531 L 14.351562 13.535156 L 14.375 13.566406 C 14.386719 13.585938 14.402344 13.601562 14.414062 13.621094 C 14.460938 13.699219 14.496094 13.796875 14.511719 13.910156 C 14.535156 14.015625 14.546875 14.128906 14.558594 14.25 C 14.570312 14.371094 14.59375 14.503906 14.636719 14.628906 C 14.71875 14.878906 14.835938 15.121094 14.988281 15.347656 C 15.066406 15.457031 15.132812 15.574219 15.222656 15.675781 C 15.3125 15.792969 15.398438 15.894531 15.496094 15.984375 C 15.683594 16.183594 15.894531 16.359375 16.105469 16.527344 C 16.3125 16.691406 16.535156 16.839844 16.75 16.976562 C 16.96875 17.113281 17.175781 17.222656 17.386719 17.335938 C 17.589844 17.441406 17.785156 17.539062 17.976562 17.617188 C 18.164062 17.695312 18.34375 17.742188 18.503906 17.792969 C 18.632812 17.832031 18.757812 17.859375 18.859375 17.871094 C 18.621094 17.863281 18.359375 17.871094 18.359375 17.871094 C 17.90625 18.09375 17.730469 18.355469 17.644531 18.632812 C 17.664062 18.539062 17.710938 18.304688 17.839844 18.113281 C 18.007812 17.863281 18.359375 17.871094 18.359375 17.871094 C 18.359375 17.871094 17.953125 17.773438 17.5 17.507812 C 17.054688 17.242188 16.015625 16.582031 15.707031 16.28125 C 15.398438 15.980469 14.808594 15.234375 14.648438 14.902344 C 14.492188 14.570312 14.511719 14.003906 14.296875 13.644531 C 14.132812 13.375 13.808594 13.203125 13.566406 13 C 13.355469 12.824219 13.066406 12.5625 12.769531 12.605469 C 12.726562 12.613281 12.679688 12.628906 12.636719 12.667969 C 12.570312 12.714844 11.996094 13.421875 12.027344 13.457031 C 12.027344 13.457031 12.480469 13.996094 13 14.449219 C 13.511719 14.898438 14.371094 15.371094 14.96875 15.785156 C 15.566406 16.199219 15.550781 16.460938 15.6875 16.671875 C 15.832031 16.886719 16.253906 17.054688 16.535156 17.140625 C 16.8125 17.230469 17.152344 17.429688 17.441406 17.769531 C 17.6875 18.050781 17.664062 18.503906 17.652344 18.632812 C 17.589844 18.828125 17.566406 19.023438 17.511719 19.222656 C 17.390625 19.710938 17.496094 19.773438 17.726562 19.984375 C 17.960938 20.183594 18.371094 20.4375 18.847656 20.539062 C 19.332031 20.628906 20.054688 20.21875 20.296875 20.117188 Z M 12.835938 13.855469 C 12.613281 13.765625 12.503906 13.511719 12.59375 13.289062 C 12.683594 13.058594 12.9375 12.957031 13.164062 13.042969 C 13.386719 13.132812 13.496094 13.386719 13.40625 13.613281 C 13.3125 13.832031 13.054688 13.941406 12.835938 13.855469 Z M 17.664062 19.207031 C 17.664062 19.207031 17.695312 19.582031 17.792969 19.773438 C 17.894531 19.972656 18 20.039062 18 20.039062 C 18 20.039062 17.621094 19.863281 17.550781 19.707031 C 17.484375 19.539062 17.566406 19.210938 17.664062 19.207031 Z M 19.898438 19.9375 C 19.078125 20.488281 17.820312 20.105469 18.015625 18.941406 C 18.140625 18.195312 18.8125 17.984375 19.410156 18.148438 C 20.207031 18.371094 20.746094 19.375 19.898438 19.9375 Z M 19.898438 19.9375 "/>
<path style=" stroke:none;fill-rule:nonzero;fill:rgb(0%,0%,0%);fill-opacity:1;" d="M 12.777344 12.46875 C 12.777344 12.46875 12.40625 12.496094 12.097656 12.269531 C 11.789062 12.03125 9.886719 10.230469 9.101562 9.675781 C 8.316406 9.117188 7.289062 8.441406 7.289062 8.441406 C 7.289062 8.441406 8.339844 8.90625 8.9375 9.296875 C 9.542969 9.691406 10.285156 10.296875 10.671875 10.738281 C 11.054688 11.1875 11.667969 12.050781 12.777344 12.46875 Z M 12.777344 12.46875 "/>
<path style=" stroke:none;fill-rule:nonzero;fill:rgb(0%,0%,0%);fill-opacity:1;" d="M 10.722656 11.234375 C 11.058594 11.566406 11.789062 12.257812 12.03125 12.375 C 12.273438 12.492188 12.558594 12.515625 12.558594 12.515625 C 12.558594 12.515625 12.144531 12.890625 12.039062 13.089844 C 11.9375 13.300781 11.9375 13.300781 11.9375 13.300781 C 11.9375 13.300781 9.894531 11.796875 8.847656 10.664062 C 7.796875 9.53125 7.003906 8.703125 7.003906 8.703125 C 7.003906 8.703125 6.894531 8.460938 7.050781 8.480469 C 7.050781 8.480469 8.09375 9.070312 8.949219 9.722656 C 9.8125 10.375 10.386719 10.894531 10.722656 11.234375 Z M 10.722656 11.234375 "/>
<path style=" stroke:none;fill-rule:nonzero;fill:rgb(0%,0%,0%);fill-opacity:1;" d="M 12.765625 13.355469 C 12.8125 13.234375 12.960938 13.167969 13.085938 13.222656 C 13.210938 13.269531 13.277344 13.417969 13.222656 13.542969 C 13.175781 13.664062 13.027344 13.730469 12.902344 13.675781 C 12.777344 13.628906 12.71875 13.480469 12.765625 13.355469 Z M 12.765625 13.355469 "/>
<path style=" stroke:none;fill-rule:nonzero;fill:rgb(0%,0%,0%);fill-opacity:1;" d="M 7.796875 19.765625 L 19.660156 8.117188 C 19.9375 7.84375 20.382812 7.851562 20.65625 8.128906 C 20.925781 8.40625 20.921875 8.859375 20.640625 9.125 L 8.785156 20.769531 C 8.507812 21.042969 8.054688 21.035156 7.789062 20.757812 C 7.511719 20.488281 7.519531 20.039062 7.796875 19.765625 Z M 7.796875 19.765625 "/>
<path style=" stroke:none;fill-rule:nonzero;fill:rgb(0%,0%,0%);fill-opacity:1;" d="M 20.445312 8.21875 C 20.527344 8.132812 20.667969 8.132812 20.753906 8.21875 L 22.347656 9.839844 C 22.425781 9.921875 22.425781 10.066406 22.347656 10.148438 C 22.261719 10.230469 22.117188 10.230469 22.039062 10.148438 L 20.445312 8.527344 C 20.359375 8.441406 20.359375 8.300781 20.445312 8.21875 Z M 20.445312 8.21875 "/>
<path style=" stroke:none;fill-rule:nonzero;fill:rgb(0%,0%,0%);fill-opacity:1;" d="M 19.605469 9.039062 C 19.6875 8.957031 19.828125 8.957031 19.914062 9.039062 L 21.507812 10.664062 C 21.585938 10.746094 21.585938 10.890625 21.507812 10.972656 C 21.421875 11.054688 21.277344 11.054688 21.199219 10.972656 L 19.605469 9.347656 C 19.519531 9.257812 19.519531 9.125 19.605469 9.039062 Z M 19.605469 9.039062 "/>
<path style=" stroke:none;fill-rule:nonzero;fill:rgb(0%,0%,0%);fill-opacity:1;" d="M 18.769531 9.863281 C 18.855469 9.78125 18.992188 9.78125 19.078125 9.863281 L 20.667969 11.488281 C 20.753906 11.570312 20.753906 11.710938 20.667969 11.796875 C 20.589844 11.875 20.445312 11.875 20.359375 11.796875 L 18.769531 10.171875 C 18.679688 10.085938 18.6875 9.945312 18.769531 9.863281 Z M 18.769531 9.863281 "/>
<path style=" stroke:none;fill-rule:nonzero;fill:rgb(0%,0%,0%);fill-opacity:1;" d="M 17.9375 10.6875 C 18.015625 10.605469 18.160156 10.605469 18.242188 10.6875 L 19.835938 12.308594 C 19.917969 12.394531 19.917969 12.535156 19.835938 12.617188 C 19.753906 12.703125 19.609375 12.703125 19.527344 12.617188 L 17.9375 10.992188 C 17.847656 10.90625 17.847656 10.769531 17.9375 10.6875 Z M 17.9375 10.6875 "/>
<path style=" stroke:none;fill-rule:nonzero;fill:rgb(0%,0%,0%);fill-opacity:1;" d="M 17.09375 11.503906 C 17.175781 11.421875 17.320312 11.421875 17.402344 11.503906 L 18.992188 13.125 C 19.078125 13.210938 19.078125 13.351562 18.992188 13.433594 C 18.910156 13.519531 18.769531 13.519531 18.6875 13.433594 L 17.09375 11.8125 C 17.011719 11.730469 17.011719 11.589844 17.09375 11.503906 Z M 17.09375 11.503906 "/>
<path style=" stroke:none;fill-rule:nonzero;fill:rgb(0%,0%,0%);fill-opacity:1;" d="M 16.257812 12.328125 C 16.339844 12.242188 16.484375 12.242188 16.566406 12.328125 L 18.160156 13.949219 C 18.242188 14.03125 18.242188 14.175781 18.160156 14.257812 C 18.074219 14.339844 17.9375 14.339844 17.851562 14.257812 L 16.257812 12.636719 C 16.171875 12.550781 16.171875 12.410156 16.257812 12.328125 Z M 16.257812 12.328125 "/>
<path style=" stroke:none;fill-rule:nonzero;fill:rgb(0%,0%,0%);fill-opacity:1;" d="M 15.417969 13.148438 C 15.5 13.066406 15.644531 13.066406 15.726562 13.148438 L 17.320312 14.773438 C 17.402344 14.855469 17.402344 15 17.320312 15.082031 C 17.234375 15.164062 17.09375 15.164062 17.011719 15.082031 L 15.417969 13.457031 C 15.335938 13.375 15.335938 13.234375 15.417969 13.148438 Z M 15.417969 13.148438 "/>
<path style=" stroke:none;fill-rule:nonzero;fill:rgb(0%,0%,0%);fill-opacity:1;" d="M 14.582031 13.972656 C 14.667969 13.890625 14.808594 13.890625 14.890625 13.972656 L 16.484375 15.597656 C 16.566406 15.675781 16.566406 15.820312 16.484375 15.90625 C 16.402344 15.984375 16.257812 15.984375 16.175781 15.90625 L 14.582031 14.28125 C 14.496094 14.199219 14.5 14.054688 14.582031 13.972656 Z M 14.582031 13.972656 "/>
<path style=" stroke:none;fill-rule:nonzero;fill:rgb(0%,0%,0%);fill-opacity:1;" d="M 13.75 14.796875 C 13.832031 14.714844 13.972656 14.714844 14.054688 14.796875 L 15.652344 16.417969 C 15.730469 16.503906 15.730469 16.644531 15.652344 16.726562 C 15.566406 16.8125 15.421875 16.8125 15.34375 16.726562 L 13.75 15.101562 C 13.660156 15.015625 13.660156 14.878906 13.75 14.796875 Z M 13.75 14.796875 "/>
<path style=" stroke:none;fill-rule:nonzero;fill:rgb(0%,0%,0%);fill-opacity:1;" d="M 12.90625 15.621094 C 12.992188 15.535156 13.132812 15.535156 13.214844 15.621094 L 14.808594 17.242188 C 14.890625 17.324219 14.890625 17.464844 14.808594 17.550781 C 14.726562 17.632812 14.582031 17.632812 14.5 17.550781 L 12.90625 15.929688 C 12.824219 15.839844 12.824219 15.699219 12.90625 15.621094 Z M 12.90625 15.621094 "/>
<path style=" stroke:none;fill-rule:nonzero;fill:rgb(0%,0%,0%);fill-opacity:1;" d="M 12.074219 16.4375 C 12.15625 16.351562 12.296875 16.351562 12.382812 16.4375 L 13.972656 18.058594 C 14.054688 18.140625 14.054688 18.285156 13.972656 18.367188 C 13.890625 18.449219 13.75 18.449219 13.664062 18.367188 L 12.074219 16.746094 C 11.984375 16.660156 11.984375 16.527344 12.074219 16.4375 Z M 12.074219 16.4375 "/>
<path style=" stroke:none;fill-rule:nonzero;fill:rgb(0%,0%,0%);fill-opacity:1;" d="M 11.234375 17.257812 C 11.3125 17.175781 11.457031 17.175781 11.542969 17.257812 L 13.132812 18.882812 C 13.214844 18.964844 13.214844 19.109375 13.132812 19.1875 C 13.046875 19.273438 12.90625 19.273438 12.824219 19.1875 L 11.234375 17.566406 C 11.148438 17.484375 11.148438 17.34375 11.234375 17.257812 Z M 11.234375 17.257812 "/>
<path style=" stroke:none;fill-rule:nonzero;fill:rgb(0%,0%,0%);fill-opacity:1;" d="M 10.398438 18.082031 C 10.480469 18 10.625 18 10.703125 18.082031 L 12.296875 19.707031 C 12.382812 19.785156 12.382812 19.929688 12.296875 20.015625 C 12.214844 20.09375 12.074219 20.09375 11.988281 20.015625 L 10.398438 18.390625 C 10.308594 18.308594 10.316406 18.164062 10.398438 18.082031 Z M 10.398438 18.082031 "/>
<path style=" stroke:none;fill-rule:nonzero;fill:rgb(0%,0%,0%);fill-opacity:1;" d="M 9.5625 18.902344 C 9.644531 18.824219 9.789062 18.824219 9.871094 18.902344 L 11.464844 20.527344 C 11.546875 20.613281 11.546875 20.753906 11.464844 20.835938 C 11.378906 20.921875 11.238281 20.921875 11.15625 20.835938 L 9.5625 19.210938 C 9.476562 19.132812 9.476562 18.988281 9.5625 18.902344 Z M 9.5625 18.902344 "/>
<path style=" stroke:none;fill-rule:nonzero;fill:rgb(0%,0%,0%);fill-opacity:1;" d="M 8.722656 19.730469 C 8.804688 19.644531 8.945312 19.644531 9.027344 19.730469 L 10.625 21.351562 C 10.703125 21.433594 10.703125 21.574219 10.625 21.660156 C 10.539062 21.742188 10.398438 21.742188 10.316406 21.660156 L 8.722656 20.039062 C 8.640625 19.949219 8.640625 19.808594 8.722656 19.730469 Z M 8.722656 19.730469 "/>
<path style=" stroke:none;fill-rule:nonzero;fill:rgb(0%,0%,0%);fill-opacity:1;" d="M 7.886719 20.550781 C 7.96875 20.46875 8.109375 20.46875 8.195312 20.550781 L 9.789062 22.171875 C 9.871094 22.257812 9.871094 22.402344 9.789062 22.480469 C 9.707031 22.566406 9.5625 22.566406 9.480469 22.480469 L 7.886719 20.859375 C 7.796875 20.769531 7.796875 20.636719 7.886719 20.550781 Z M 7.886719 20.550781 "/>
</g>
</svg>
